{
.appVersion = "3513";
.formatVersion = 3;
DisplayStrings = (
"jörg@joerg-drees.de",
""
);
customParameters = (
{
name = "Use Typo Metrics";
value = 1;
},
{
name = fsType;
value = (
);
}
);
date = "2026-01-30 16:40:44 +0000";
familyName = Jacobins;
fontMaster = (
{
customParameters = (
{
name = hheaAscender;
value = 990;
},
{
name = hheaDescender;
value = -230;
},
{
name = hheaLineGap;
value = 180;
},
{
name = typoAscender;
value = 990;
},
{
name = typoDescender;
value = -230;
},
{
name = typoLineGap;
value = 180;
},
{
name = winAscent;
value = 990;
},
{
name = winDescent;
value = 230;
}
);
id = m01;
metricValues = (
{
over = 16;
pos = 800;
},
{
over = 16;
pos = 700;
},
{
over = 16;
pos = 500;
},
{
over = -16;
},
{
over = -16;
pos = -200;
},
{
}
);
name = Regular;
stemValues = (
80,
40
);
userData = {
GSOffsetHorizontal = 40;
GSOffsetMakeStroke = 1;
GSOffsetVertical = 20;
};
}
);
glyphs = (
{
glyphname = A;
lastChange = "2026-01-31 22:21:30 +0000";
layers = (
{
anchors = (
{
name = bottom;
pos = (375,0);
},
{
name = ogonek;
pos = (674,10);
},
{
name = top;
pos = (375,700);
}
);
layerId = m01;
shapes = (
{
closed = 1;
nodes = (
(107,41,l),
(0,41,l),
(0,0,l),
(92,3,o),
(168,3,o),
(260,0,c),
(260,41,l),
(152,41,l),
(377,607,l),
(388,736,l)
);
},
{
closed = 1;
nodes = (
(573,3,o),
(648,3,o),
(749,0,c),
(749,41,l),
(649,41,l),
(388,736,l),
(353,597,l),
(558,41,l),
(472,41,l),
(472,0,l)
);
},
{
closed = 1;
nodes = (
(200,230,l),
(540,230,l),
(540,270,l),
(200,270,l)
);
}
);
width = 749;
}
);
unicode = 65;
},
{
color = 3;
glyphname = AE;
lastChange = "2026-02-01 11:18:21 +0000";
layers = (
{
layerId = m01;
shapes = (
{
closed = 1;
nodes = (
(90,41,l),
(20,41,l),
(20,0,l),
(112,3,o),
(109,3,o),
(201,0,c),
(201,41,l),
(136,41,l),
(462,607,l),
(458,681,l)
);
},
{
closed = 1;
nodes = (
(216,230,l),
(516,230,l),
(523,270,l),
(223,270,l)
);
},
{
closed = 1;
nodes = (
(671,0,l),
(671,40,l),
(543,40,l),
(543,700,l),
(361,700,l),
(361,660,l),
(459,660,l),
(459,40,l),
(361,40,l),
(361,0,l)
);
},
{
closed = 1;
nodes = (
(759,252,l),
(757,332,o),
(757,412,o),
(759,492,c),
(699,492,l),
(699,392,l),
(501,392,l),
(501,352,l),
(699,352,l),
(699,252,l)
);
},
{
closed = 1;
nodes = (
(841,560,l),
(839,607,o),
(839,653,o),
(841,700,c),
(541,700,l),
(541,660,l),
(771,660,l),
(781,560,l)
);
},
{
closed = 1;
nodes = (
(791,40,l),
(541,40,l),
(541,0,l),
(861,0,l),
(859,60,o),
(859,120,o),
(861,180,c),
(801,180,l)
);
}
);
width = 921;
}
);
unicode = 198;
},
{
glyphname = B;
lastChange = "2026-01-31 22:21:30 +0000";
layers = (
{
anchors = (
{
name = bottom;
pos = (299,0);
},
{
name = center;
pos = (149,210);
},
{
name = top;
pos = (299,700);
}
);
background = {
shapes = (
{
closed = 1;
nodes = (
(290,0,l),
(290,40,l),
(202,40,l),
(202,700,l),
(20,700,l),
(20,660,l),
(118,660,l),
(118,40,l),
(20,40,l),
(20,0,l)
);
},
{
closed = 1;
nodes = (
(458,252,l),
(456,332,o),
(456,412,o),
(458,492,c),
(398,492,l),
(398,392,l),
(160,392,l),
(160,352,l),
(398,352,l),
(398,252,l)
);
},
{
closed = 1;
nodes = (
(540,560,l),
(538,607,o),
(538,653,o),
(540,700,c),
(200,700,l),
(200,660,l),
(470,660,l),
(480,560,l)
);
},
{
closed = 1;
nodes = (
(490,40,l),
(200,40,l),
(200,0,l),
(560,0,l),
(558,60,o),
(558,120,o),
(560,180,c),
(500,180,l)
);
}
);
};
layerId = m01;
shapes = (
{
closed = 1;
nodes = (
(310,0,l),
(310,40,l),
(202,40,l),
(202,660,l),
(270,660,l),
(270,700,l),
(200,700,l),
(20,700,l),
(20,660,l),
(118,660,l),
(118,40,l),
(20,40,l),
(20,0,l)
);
},
{
closed = 1;
nodes = (
(409,352,o),
(515,430,o),
(515,533,cs),
(515,634,o),
(413,700,o),
(270,700,c),
(270,660,l),
(358,660,o),
(421,611,o),
(421,534,cs),
(421,454,o),
(354,392,o),
(260,392,c),
(260,352,l)
);
},
{
closed = 1;
nodes = (
(453,0,o),
(555,84,o),
(555,196,cs),
(555,314,o),
(441,392,o),
(280,392,c),
(280,352,l),
(386,352,o),
(461,290,o),
(461,195,cs),
(461,108,o),
(398,40,o),
(310,40,c),
(310,0,l)
);
},
{
closed = 1;
nodes = (
(181,352,l),
(260,352,l),
(260,392,l),
(181,392,l)
);
}
);
width = 597;
}
);
unicode = 66;
},
{
glyphname = C;
lastChange = "2026-01-31 22:21:30 +0000";
layers = (
{
anchors = (
{
name = bottom;
pos = (329,0);
},
{
name = top;
pos = (329,700);
}
);
layerId = m01;
shapes = (
{
closed = 1;
nodes = (
(480,-13,o),
(565,23,o),
(619,75,c),
(584,115,l),
(543,65,o),
(473,29,o),
(394,29,cs),
(241,29,o),
(138,162,o),
(138,351,cs),
(138,540,o),
(241,674,o),
(384,674,cs),
(477,674,o),
(540,617,o),
(540,536,cs),
(540,477,l),
(592,477,l),
(589,542,o),
(589,635,o),
(592,700,c),
(540,700,l),
(540,657,l),
(498,692,o),
(434,716,o),
(363,716,cs),
(186,716,o),
(44,565,o),
(44,352,cs),
(44,138,o),
(186,-13,o),
(384,-13,cs)
);
}
);
width = 657;
}
);
unicode = 67;
},
{
glyphname = D;
lastChange = "2026-01-31 22:21:30 +0000";
layers = (
{
anchors = (
{
name = bottom;
pos = (360,0);
},
{
name = center;
pos = (180,350);
},
{
name = top;
pos = (360,700);
}
);
layerId = m01;
shapes = (
{
closed = 1;
nodes = (
(360,0,l),
(360,40,l),
(202,40,l),
(202,660,l),
(370,660,l),
(370,700,l),
(200,700,l),
(20,700,l),
(20,660,l),
(118,660,l),
(118,40,l),
(20,40,l),
(20,0,l)
);
},
{
closed = 1;
nodes = (
(533,0,o),
(655,146,o),
(655,353,cs),
(655,556,o),
(537,700,o),
(370,700,c),
(370,660,l),
(482,660,o),
(561,533,o),
(561,353,cs),
(561,170,o),
(478,40,o),
(360,40,c),
(360,0,l)
);
}
);
width = 720;
}
);
unicode = 68;
},
{
color = 3;
glyphname = Eth;
lastChange = "2026-02-01 11:22:07 +0000";
layers = (
{
layerId = m01;
shapes = (
{
ref = D;
},
{
closed = 1;
nodes = (
(43,350,l),
(283,350,l),
(283,410,l),
(43,410,l)
);
}
);
width = 720;
}
);
unicode = 208;
},
{
glyphname = E;
lastChange = "2026-01-31 22:21:30 +0000";
layers = (
{
anchors = (
{
name = bottom;
pos = (310,0);
},
{
name = ogonek;
pos = (558,10);
},
{
name = top;
pos = (310,700);
},
{
name = topleft;
pos = (20,700);
}
);
layerId = m01;
shapes = (
{
closed = 1;
nodes = (
(290,0,l),
(290,40,l),
(202,40,l),
(202,700,l),
(20,700,l),
(20,660,l),
(118,660,l),
(118,40,l),
(20,40,l),
(20,0,l)
);
},
{
closed = 1;
nodes = (
(458,252,l),
(456,332,o),
(456,412,o),
(458,492,c),
(398,492,l),
(398,392,l),
(160,392,l),
(160,352,l),
(398,352,l),
(398,252,l)
);
},
{
closed = 1;
nodes = (
(540,560,l),
(538,607,o),
(538,653,o),
(540,700,c),
(200,700,l),
(200,660,l),
(470,660,l),
(480,560,l)
);
},
{
closed = 1;
nodes = (
(490,40,l),
(200,40,l),
(200,0,l),
(560,0,l),
(558,60,o),
(558,120,o),
(560,180,c),
(500,180,l)
);
}
);
width = 620;
}
);
unicode = 69;
},
{
glyphname = F;
lastChange = "2026-01-31 22:21:30 +0000";
layers = (
{
anchors = (
{
name = bottom;
pos = (280,0);
},
{
name = top;
pos = (280,700);
}
);
layerId = m01;
shapes = (
{
closed = 1;
nodes = (
(280,0,l),
(280,40,l),
(192,40,l),
(192,700,l),
(10,700,l),
(10,660,l),
(108,660,l),
(108,40,l),
(10,40,l),
(10,0,l)
);
},
{
closed = 1;
nodes = (
(448,252,l),
(446,332,o),
(446,412,o),
(448,492,c),
(388,492,l),
(388,392,l),
(150,392,l),
(150,352,l),
(388,352,l),
(388,252,l)
);
},
{
closed = 1;
nodes = (
(530,560,l),
(528,607,o),
(528,653,o),
(530,700,c),
(190,700,l),
(190,660,l),
(460,660,l),
(470,560,l)
);
}
);
width = 560;
}
);
unicode = 70;
},
{
glyphname = G;
lastChange = "2026-01-31 22:21:30 +0000";
layers = (
{
anchors = (
{
name = bottom;
pos = (350,0);
},
{
name = top;
pos = (350,700);
}
);
background = {
shapes = (
{
closed = 1;
nodes = (
(480,-13,o),
(560,19,o),
(619,75,c),
(564,115,l),
(520,61,o),
(458,29,o),
(387,29,cs),
(241,29,o),
(138,162,o),
(138,351,cs),
(138,540,o),
(241,674,o),
(387,674,cs),
(469,674,o),
(560,617,o),
(560,536,cs),
(560,477,l),
(602,477,l),
(599,542,o),
(599,635,o),
(602,700,c),
(560,700,l),
(560,657,l),
(516,693,o),
(445,716,o),
(387,716,cs),
(186,716,o),
(44,565,o),
(44,351,cs),
(44,138,o),
(186,-13,o),
(387,-13,cs)
);
}
);
};
layerId = m01;
shapes = (
{
closed = 1;
nodes = (
(495,-13,o),
(596,67,o),
(596,180,c),
(556,180,l),
(556,92,o),
(478,29,o),
(378,29,cs),
(233,29,o),
(138,162,o),
(138,347,cs),
(138,540,o),
(241,674,o),
(390,674,cs),
(488,674,o),
(560,617,o),
(560,536,cs),
(560,477,l),
(612,477,l),
(609,542,o),
(609,635,o),
(612,700,c),
(560,700,l),
(560,657,l),
(519,692,o),
(447,716,o),
(373,716,cs),
(186,716,o),
(44,564,o),
(44,345,cs),
(44,137,o),
(172,-13,o),
(359,-13,cs)
);
},
{
closed = 1;
nodes = (
(640,-1,l),
(638,106,o),
(638,213,o),
(640,320,c),
(558,317,o),
(442,317,o),
(360,320,c),
(360,278,l),
(556,278,l),
(556,-1,l)
);
}
);
width = 700;
}
);
unicode = 71;
},
{
glyphname = H;
lastChange = "2026-01-31 22:21:30 +0000";
layers = (
{
anchors = (
{
name = bottom;
pos = (400,0);
},
{
name = center;
pos = (400,560);
},
{
name = top;
pos = (400,700);
},
{
name = topleft;
pos = (20,700);
}
);
layerId = m01;
shapes = (
{
closed = 1;
nodes = (
(290,0,l),
(290,40,l),
(202,40,l),
(202,660,l),
(300,660,l),
(300,700,l),
(200,700,l),
(20,700,l),
(20,660,l),
(118,660,l),
(118,40,l),
(20,40,l),
(20,0,l)
);
},
{
closed = 1;
nodes = (
(770,0,l),
(770,40,l),
(682,40,l),
(682,660,l),
(780,660,l),
(780,700,l),
(680,700,l),
(500,700,l),
(500,660,l),
(598,660,l),
(598,40,l),
(500,40,l),
(500,0,l)
);
},
{
closed = 1;
nodes = (
(160,350,l),
(670,350,l),
(670,390,l),
(160,390,l)
);
}
);
width = 800;
}
);
unicode = 72;
},
{
glyphname = I;
lastChange = "2026-01-31 22:21:30 +0000";
layers = (
{
anchors = (
{
name = bottom;
pos = (160,0);
},
{
name = ogonek;
pos = (288,10);
},
{
name = top;
pos = (160,700);
},
{
name = topleft;
pos = (20,700);
}
);
layerId = m01;
shapes = (
{
closed = 1;
nodes = (
(290,0,l),
(290,40,l),
(202,40,l),
(202,660,l),
(300,660,l),
(300,700,l),
(200,700,l),
(20,700,l),
(20,660,l),
(118,660,l),
(118,40,l),
(20,40,l),
(20,0,l)
);
}
);
width = 320;
}
);
unicode = 73;
},
{
glyphname = J;
lastChange = "2026-01-31 22:21:30 +0000";
layers = (
{
anchors = (
{
name = bottom;
pos = (140,0);
},
{
name = top;
pos = (140,700);
}
);
layerId = m01;
shapes = (
{
closed = 1;
nodes = (
(118,-66,o),
(106,-176,o),
(30,-183,c),
(30,-216,l),
(153,-216,o),
(202,-93,o),
(202,80,cs),
(202,660,l),
(300,660,l),
(300,700,l),
(20,700,l),
(20,660,l),
(118,660,l),
(118,80,ls)
);
}
);
width = 280;
}
);
unicode = 74;
},
{
glyphname = K;
lastChange = "2026-01-31 22:21:30 +0000";
layers = (
{
anchors = (
{
name = bottom;
pos = (325,0);
},
{
name = top;
pos = (325,700);
}
);
background = {
shapes = (
{
closed = 1;
nodes = (
(290,0,l),
(290,40,l),
(202,40,l),
(202,660,l),
(300,660,l),
(300,700,l),
(200,700,l),
(20,700,l),
(20,660,l),
(118,660,l),
(118,40,l),
(20,40,l),
(20,0,l)
);
},
{
closed = 1;
nodes = (
(545,660,l),
(619,660,l),
(619,700,l),
(546,698,o),
(473,698,o),
(400,700,c),
(400,660,l),
(484,660,l),
(224,410,l),
(250,379,l)
);
},
{
closed = 1;
nodes = (
(483,2,o),
(557,2,o),
(630,0,c),
(630,40,l),
(576,40,l),
(327,338,l),
(269,282,l),
(472,40,l),
(410,40,l),
(410,0,l)
);
}
);
};
layerId = m01;
shapes = (
{
closed = 1;
nodes = (
(290,0,l),
(290,40,l),
(202,40,l),
(202,660,l),
(300,660,l),
(300,700,l),
(200,700,l),
(20,700,l),
(20,660,l),
(118,660,l),
(118,40,l),
(20,40,l),
(20,0,l)
);
},
{
closed = 1;
nodes = (
(545,660,l),
(619,660,l),
(619,700,l),
(546,698,o),
(473,698,o),
(400,700,c),
(400,660,l),
(484,660,l),
(141,311,l),
(167,280,l)
);
},
{
closed = 1;
nodes = (
(503,2,o),
(577,2,o),
(650,0,c),
(650,40,l),
(603,40,l),
(280,403,l),
(222,342,l),
(489,40,l),
(430,40,l),
(430,0,l)
);
}
);
width = 650;
}
);
unicode = 75;
},
{
glyphname = L;
lastChange = "2026-01-31 22:21:30 +0000";
layers = (
{
anchors = (
{
name = bottom;
pos = (292,0);
},
{
name = center;
pos = (292,350);
},
{
name = top;
pos = (292,700);
},
{
name = topright;
pos = (564,700);
}
);
layerId = m01;
shapes = (
{
closed = 1;
nodes = (
(290,0,l),
(290,40,l),
(202,40,l),
(202,660,l),
(302,660,l),
(302,700,l),
(20,700,l),
(20,660,l),
(118,660,l),
(118,40,l),
(20,40,l),
(20,0,l)
);
},
{
closed = 1;
nodes = (
(490,40,l),
(200,40,l),
(200,0,l),
(560,0,l),
(558,60,o),
(558,120,o),
(560,180,c),
(500,180,l)
);
}
);
width = 584;
}
);
unicode = 76;
},
{
glyphname = M;
lastChange = "2026-01-31 22:21:30 +0000";
layers = (
{
anchors = (
{
name = bottom;
pos = (511,0);
},
{
name = top;
pos = (511,700);
}
);
layerId = m01;
shapes = (
{
closed = 1;
nodes = (
(20,0,l),
(300,0,l),
(300,40,l),
(180,40,l),
(180,700,l),
(140,700,l),
(140,40,l),
(20,40,l)
);
},
{
closed = 1;
nodes = (
(544,62,l),
(213,701,l),
(20,701,l),
(20,661,l),
(139,661,l),
(500,-36,l)
);
},
{
closed = 1;
nodes = (
(842,660,l),
(995,660,l),
(995,700,l),
(817,700,l),
(491,34,l),
(500,-36,l)
);
},
{
closed = 1;
nodes = (
(697,0,l),
(1021,0,l),
(1021,40,l),
(901,40,l),
(901,700,l),
(817,700,l),
(817,40,l),
(697,40,l)
);
}
);
width = 1021;
}
);
unicode = 77;
},
{
glyphname = N;
lastChange = "2026-01-31 22:21:30 +0000";
layers = (
{
anchors = (
{
name = bottom;
pos = (400,0);
},
{
name = top;
pos = (400,700);
}
);
layerId = m01;
shapes = (
{
closed = 1;
nodes = (
(20,0,l),
(300,0,l),
(300,40,l),
(180,40,l),
(180,700,l),
(140,700,l),
(140,40,l),
(20,40,l)
);
},
{
closed = 1;
nodes = (
(680,100,l),
(212,701,l),
(20,701,l),
(20,661,l),
(136,661,l),
(680,-36,l)
);
},
{
closed = 1;
nodes = (
(640,660,l),
(640,50,l),
(680,-20,l),
(680,660,l),
(800,660,l),
(800,700,l),
(520,700,l),
(520,660,l)
);
}
);
width = 800;
}
);
unicode = 78;
},
{
glyphname = O;
lastChange = "2026-01-31 22:21:30 +0000";
layers = (
{
anchors = (
{
name = bottom;
pos = (387,0);
},
{
name = center;
pos = (387,350);
},
{
name = ogonek;
pos = (697,10);
},
{
name = top;
pos = (387,700);
},
{
name = topleft;
pos = (20,700);
},
{
name = topright;
pos = (754,700);
}
);
layerId = m01;
shapes = (
{
closed = 1;
nodes = (
(588,-13,o),
(730,140,o),
(730,353,cs),
(730,567,o),
(588,716,o),
(387,716,cs),
(186,716,o),
(44,567,o),
(44,353,cs),
(44,140,o),
(186,-13,o),
(387,-13,cs)
);
},
{
closed = 1;
nodes = (
(241,29,o),
(138,164,o),
(138,353,cs),
(138,542,o),
(241,674,o),
(387,674,cs),
(533,674,o),
(637,542,o),
(637,353,cs),
(637,164,o),
(533,29,o),
(387,29,cs)
);
}
);
width = 774;
}
);
unicode = 79;
},
{
color = 3;
glyphname = Oslash;
lastChange = "2026-02-01 11:15:47 +0000";
layers = (
{
layerId = m01;
shapes = (
{
ref = O;
},
{
closed = 1;
nodes = (
(40,0,l),
(94,0,l),
(734,700,l),
(680,700,l)
);
}
);
width = 774;
}
);
unicode = 216;
},
{
color = 3;
glyphname = OE;
lastChange = "2026-02-01 11:19:42 +0000";
layers = (
{
layerId = m01;
shapes = (
{
closed = 1;
nodes = (
(524,-13,o),
(610,139,o),
(610,353,cs),
(610,566,o),
(524,716,o),
(347,716,cs),
(170,716,o),
(44,566,o),
(44,353,cs),
(44,139,o),
(170,-13,o),
(347,-13,cs)
);
},
{
closed = 1;
nodes = (
(225,29,o),
(138,163,o),
(138,353,cs),
(138,541,o),
(225,674,o),
(347,674,cs),
(470,674,o),
(557,541,o),
(557,353,cs),
(557,163,o),
(470,29,o),
(347,29,cs)
);
},
{
closed = 1;
nodes = (
(968,0,l),
(966,60,o),
(966,120,o),
(968,180,c),
(908,180,l),
(898,40,l),
(648,40,l),
(648,0,l)
);
},
{
closed = 1;
nodes = (
(738,0,l),
(738,40,l),
(650,40,l),
(650,700,l),
(566,700,l),
(566,0,l)
);
},
{
closed = 1;
nodes = (
(866,252,l),
(864,332,o),
(864,412,o),
(866,492,c),
(806,492,l),
(806,392,l),
(608,392,l),
(608,352,l),
(806,352,l),
(806,252,l)
);
},
{
closed = 1;
nodes = (
(948,560,l),
(946,607,o),
(946,653,o),
(948,700,c),
(648,700,l),
(648,660,l),
(878,660,l),
(888,560,l)
);
}
);
width = 1028;
}
);
unicode = 338;
},
{
glyphname = P;
lastChange = "2026-01-31 22:21:30 +0000";
layers = (
{
anchors = (
{
name = bottom;
pos = (290,0);
},
{
name = top;
pos = (290,700);
}
);
layerId = m01;
shapes = (
{
closed = 1;
nodes = (
(290,0,l),
(290,40,l),
(202,40,l),
(202,700,l),
(20,700,l),
(20,650,l),
(118,650,l),
(118,40,l),
(20,40,l),
(20,0,l)
);
},
{
closed = 1;
nodes = (
(231,310,o),
(295,310,o),
(320,310,cs),
(444,310,o),
(532,393,o),
(532,510,cs),
(532,621,o),
(444,700,o),
(320,700,cs),
(190,700,l),
(190,663,l),
(233,663,o),
(288,663,o),
(320,663,cs),
(391,663,o),
(442,600,o),
(442,510,cs),
(442,415,o),
(391,348,o),
(320,348,cs),
(186,348,l),
(186,310,l)
);
}
);
width = 580;
}
);
unicode = 80;
},
{
color = 3;
glyphname = Thorn;
lastChange = "2026-02-01 11:20:48 +0000";
layers = (
{
layerId = m01;
shapes = (
{
closed = 1;
nodes = (
(290,0,l),
(290,40,l),
(202,40,l),
(202,700,l),
(20,700,l),
(20,650,l),
(118,650,l),
(118,40,l),
(20,40,l),
(20,0,l)
);
},
{
closed = 1;
nodes = (
(231,190,o),
(295,190,o),
(320,190,cs),
(444,190,o),
(532,273,o),
(532,390,cs),
(532,501,o),
(444,580,o),
(320,580,cs),
(190,580,l),
(190,543,l),
(233,543,o),
(288,543,o),
(320,543,cs),
(391,543,o),
(442,480,o),
(442,390,cs),
(442,295,o),
(391,228,o),
(320,228,cs),
(186,228,l),
(186,190,l)
);
}
);
width = 580;
}
);
unicode = 222;
},
{
glyphname = Q;
lastChange = "2026-01-31 22:21:30 +0000";
layers = (
{
anchors = (
{
name = bottom;
pos = (387,0);
},
{
name = top;
pos = (387,700);
}
);
layerId = m01;
shapes = (
{
closed = 1;
nodes = (
(588,-13,o),
(730,138,o),
(730,351,cs),
(730,565,o),
(588,716,o),
(387,716,cs),
(186,716,o),
(44,565,o),
(44,351,cs),
(44,138,o),
(186,-13,o),
(387,-13,cs)
);
},
{
closed = 1;
nodes = (
(241,29,o),
(138,162,o),
(138,351,cs),
(138,540,o),
(241,674,o),
(387,674,cs),
(533,674,o),
(637,540,o),
(637,351,cs),
(637,162,o),
(533,29,o),
(387,29,cs)
);
},
{
closed = 1;
nodes = (
(337,-107,o),
(447,-197,o),
(602,-197,cs),
(673,-197,o),
(757,-178,o),
(806,-152,c),
(792,-114,l),
(755,-136,o),
(686,-152,o),
(627,-152,cs),
(506,-152,o),
(421,-81,o),
(421,20,c),
(337,20,l)
);
}
);
width = 774;
}
);
unicode = 81;
},
{
glyphname = R;
lastChange = "2026-01-31 22:21:30 +0000";
layers = (
{
anchors = (
{
name = bottom;
pos = (320,0);
},
{
name = top;
pos = (320,700);
}
);
layerId = m01;
shapes = (
{
closed = 1;
nodes = (
(290,0,l),
(290,40,l),
(202,40,l),
(202,700,l),
(20,700,l),
(20,660,l),
(118,660,l),
(118,40,l),
(20,40,l),
(20,0,l)
);
},
{
closed = 1;
nodes = (
(231,330,o),
(295,330,o),
(320,330,cs),
(444,330,o),
(532,409,o),
(532,520,cs),
(532,625,o),
(444,700,o),
(320,700,cs),
(190,700,l),
(190,663,l),
(233,663,o),
(288,663,o),
(320,663,cs),
(391,663,o),
(442,604,o),
(442,520,cs),
(442,431,o),
(391,368,o),
(320,368,cs),
(186,368,l),
(186,330,l)
);
},
{
closed = 1;
nodes = (
(620,0,l),
(620,40,l),
(570,40,l),
(350,353,l),
(250,353,l),
(495,0,l)
);
}
);
width = 640;
}
);
unicode = 82;
},
{
glyphname = S;
lastChange = "2026-01-31 22:21:30 +0000";
layers = (
{
anchors = (
{
name = bottom;
pos = (270,0);
},
{
name = top;
pos = (270,700);
}
);
layerId = m01;
shapes = (
{
closed = 1;
nodes = (
(403,-16,o),
(492,66,o),
(492,181,cs),
(492,420,o),
(132,370,o),
(132,562,cs),
(132,623,o),
(179,674,o),
(270,674,cs),
(352,674,o),
(420,617,o),
(420,536,cs),
(420,477,l),
(472,477,l),
(469,542,o),
(469,635,o),
(472,700,c),
(420,700,l),
(420,630,l),
(449,626,l),
(415,679,o),
(339,716,o),
(265,716,cs),
(148,716,o),
(65,637,o),
(65,525,cs),
(65,292,o),
(425,344,o),
(425,145,cs),
(425,79,o),
(373,26,o),
(274,26,cs),
(179,26,o),
(102,88,o),
(102,176,cs),
(102,220,l),
(50,220,l),
(53,156,o),
(53,64,o),
(50,0,c),
(102,0,l),
(102,83,l),
(77,83,l),
(109,25,o),
(192,-16,o),
(278,-16,cs)
);
}
);
width = 540;
}
);
unicode = 83;
},
{
color = 3;
glyphname = Germandbls;
lastChange = "2026-02-01 11:31:40 +0000";
layers = (
{
layerId = m01;
shapes = (
{
closed = 1;
nodes = (
(200,0,l),
(200,167,o),
(200,611,o),
(200,660,c),
(332,660,l),
(372,660,o),
(400,627,o),
(400,572,cs),
(400,467,o),
(300,493,o),
(300,369,cs),
(300,205,o),
(475,211,o),
(475,104,cs),
(475,57,o),
(441,24,o),
(390,24,cs),
(334,24,o),
(308,64,o),
(328,120,c),
(280,120,l),
(279,40,o),
(330,-16,o),
(400,-16,cs),
(473,-16,o),
(528,44,o),
(528,130,cs),
(528,284,o),
(354,279,o),
(354,388,cs),
(354,482,o),
(484,471,o),
(484,602,cs),
(484,695,o),
(419,700,o),
(332,700,c),
(20,700,l),
(20,660,l),
(117,659,l),
(117,458,l),
(117,458,l),
(117,41,l),
(21,41,l),
(21,0,l)
);
}
);
width = 560;
}
);
unicode = 7838;
},
{
glyphname = T;
lastChange = "2026-01-31 22:21:30 +0000";
layers = (
{
anchors = (
{
name = bottom;
pos = (312,0);
},
{
name = center;
pos = (312,350);
},
{
name = top;
pos = (312,700);
}
);
background = {
shapes = (
{
closed = 1;
nodes = (
(202,0,l),
(202,40,l),
(114,40,l),
(114,660,l),
(212,660,l),
(212,700,l),
(112,700,l),
(-68,700,l),
(-68,660,l),
(30,660,l),
(30,40,l),
(-68,40,l),
(-68,0,l)
);
},
{
closed = 1;
nodes = (
(682,0,l),
(682,40,l),
(594,40,l),
(594,660,l),
(692,660,l),
(692,700,l),
(592,700,l),
(412,700,l),
(412,660,l),
(510,660,l),
(510,40,l),
(412,40,l),
(412,0,l)
);
},
{
closed = 1;
nodes = (
(72,350,l),
(582,350,l),
(582,390,l),
(72,390,l)
);
}
);
};
layerId = m01;
shapes = (
{
closed = 1;
nodes = (
(442,0,l),
(442,40,l),
(354,40,l),
(354,700,l),
(152,700,l),
(152,660,l),
(270,660,l),
(270,40,l),
(172,40,l),
(172,0,l)
);
},
{
closed = 1;
nodes = (
(612,540,l),
(610,587,o),
(610,653,o),
(612,700,c),
(292,700,l),
(292,660,l),
(542,660,l),
(552,540,l)
);
},
{
closed = 1;
nodes = (
(81,660,l),
(331,660,l),
(331,700,l),
(11,700,l),
(13,653,o),
(13,587,o),
(11,540,c),
(71,540,l)
);
}
);
width = 623;
}
);
unicode = 84;
},
{
glyphname = U;
lastChange = "2026-01-31 22:21:30 +0000";
layers = (
{
anchors = (
{
name = bottom;
pos = (390,0);
},
{
name = ogonek;
pos = (702,10);
},
{
name = top;
pos = (390,700);
},
{
name = topright;
pos = (760,700);
}
);
background = {
shapes = (
{
closed = 1;
nodes = (
(202,235,l),
(202,660,l),
(300,660,l),
(300,700,l),
(200,700,l),
(20,700,l),
(20,660,l),
(118,660,l),
(118,235,l)
);
},
{
closed = 1;
nodes = (
(660,660,l),
(660,235,l),
(700,235,l),
(700,660,l),
(820,660,l),
(820,700,l),
(540,700,l),
(540,660,l)
);
},
{
closed = 1;
nodes = (
(592,-14,o),
(700,89,o),
(700,235,c),
(660,235,l),
(660,113,o),
(570,26,o),
(436,26,cs),
(301,26,o),
(202,113,o),
(202,235,c),
(118,235,l),
(118,89,o),
(251,-14,o),
(422,-14,cs)
);
}
);
};
layerId = m01;
shapes = (
{
closed = 1;
nodes = (
(202,235,l),
(202,660,l),
(300,660,l),
(300,700,l),
(200,700,l),
(20,700,l),
(20,660,l),
(118,660,l),
(118,235,l)
);
},
{
closed = 1;
nodes = (
(620,660,l),
(620,235,l),
(660,235,l),
(660,660,l),
(780,660,l),
(780,700,l),
(500,700,l),
(500,660,l)
);
},
{
closed = 1;
nodes = (
(572,-14,o),
(660,89,o),
(660,235,c),
(620,235,l),
(620,113,o),
(550,29,o),
(416,29,cs),
(281,29,o),
(202,113,o),
(202,235,c),
(118,235,l),
(118,89,o),
(231,-14,o),
(402,-14,cs)
);
}
);
width = 780;
}
);
unicode = 85;
},
{
glyphname = V;
lastChange = "2026-01-31 22:21:30 +0000";
layers = (
{
anchors = (
{
name = bottom;
pos = (365,0);
},
{
name = top;
pos = (365,700);
}
);
background = {
shapes = (
{
closed = 1;
nodes = (
(182,235,l),
(182,660,l),
(280,660,l),
(280,700,l),
(180,700,l),
(0,700,l),
(0,660,l),
(98,660,l),
(98,235,l)
);
},
{
closed = 1;
nodes = (
(600,660,l),
(600,235,l),
(640,235,l),
(640,660,l),
(760,660,l),
(760,700,l),
(480,700,l),
(480,660,l)
);
},
{
closed = 1;
nodes = (
(552,-14,o),
(640,89,o),
(640,235,c),
(600,235,l),
(600,113,o),
(530,26,o),
(396,26,cs),
(261,26,o),
(182,113,o),
(182,235,c),
(98,235,l),
(98,89,o),
(211,-14,o),
(382,-14,cs)
);
}
);
};
layerId = m01;
shapes = (
{
closed = 1;
nodes = (
(642,659,l),
(749,659,l),
(749,700,l),
(657,697,o),
(581,697,o),
(489,700,c),
(489,659,l),
(597,659,l),
(372,93,l),
(361,-36,l)
);
},
{
closed = 1;
nodes = (
(176,697,o),
(101,697,o),
(0,700,c),
(0,659,l),
(100,659,l),
(361,-36,l),
(396,103,l),
(191,659,l),
(277,659,l),
(277,700,l)
);
}
);
width = 729;
}
);
unicode = 86;
},
{
glyphname = W;
lastChange = "2026-01-31 22:21:30 +0000";
layers = (
{
anchors = (
{
name = bottom;
pos = (515,0);
},
{
name = top;
pos = (515,700);
}
);
layerId = m01;
shapes = (
{
closed = 1;
nodes = (
(642,659,l),
(749,659,l),
(749,700,l),
(657,697,o),
(581,697,o),
(489,700,c),
(489,659,l),
(597,659,l),
(372,93,l),
(361,-36,l)
);
},
{
closed = 1;
nodes = (
(176,697,o),
(101,697,o),
(0,700,c),
(0,659,l),
(100,659,l),
(361,-36,l),
(396,103,l),
(191,659,l),
(277,659,l),
(277,700,l)
);
},
{
closed = 1;
nodes = (
(942,659,l),
(1049,659,l),
(1049,700,l),
(957,697,o),
(881,697,o),
(789,700,c),
(789,659,l),
(897,659,l),
(672,93,l),
(661,-36,l)
);
},
{
closed = 1;
nodes = (
(476,697,o),
(401,697,o),
(300,700,c),
(300,659,l),
(400,659,l),
(661,-36,l),
(696,103,l),
(491,659,l),
(577,659,l),
(577,700,l)
);
}
);
width = 1029;
}
);
unicode = 87;
},
{
glyphname = X;
lastChange = "2026-01-31 22:21:30 +0000";
layers = (
{
anchors = (
{
name = bottom;
pos = (350,0);
},
{
name = top;
pos = (350,700);
}
);
layerId = m01;
shapes = (
{
closed = 1;
nodes = (
(509,3,o),
(605,3,o),
(699,0,c),
(699,41,l),
(631,41,l),
(361,408,l),
(186,662,l),
(285,662,l),
(285,700,l),
(191,703,o),
(94,703,o),
(0,700,c),
(0,662,l),
(85,662,l),
(327,321,l),
(528,41,l),
(414,41,l),
(414,0,l)
);
},
{
closed = 1;
nodes = (
(85,3,o),
(172,3,o),
(258,0,c),
(258,41,l),
(140,41,l),
(349,329,l),
(337,377,l),
(90,41,l),
(0,41,l),
(0,0,l)
);
},
{
closed = 1;
nodes = (
(593,662,l),
(699,662,l),
(699,700,l),
(614,703,o),
(527,703,o),
(441,700,c),
(441,662,l),
(543,662,l),
(353,403,l),
(365,356,l)
);
}
);
width = 700;
}
);
unicode = 88;
},
{
glyphname = Y;
lastChange = "2026-01-31 22:21:30 +0000";
layers = (
{
anchors = (
{
name = bottom;
pos = (320,0);
},
{
name = top;
pos = (320,700);
},
{
name = topleft;
pos = (20,700);
}
);
layerId = m01;
shapes = (
{
closed = 1;
nodes = (
(563,659,l),
(640,659,l),
(640,700,l),
(548,697,o),
(532,697,o),
(440,700,c),
(440,659,l),
(519,659,l),
(330,323,l),
(321,204,l)
);
},
{
closed = 1;
nodes = (
(119,697,o),
(61,697,o),
(0,700,c),
(0,659,l),
(56,659,l),
(321,204,l),
(354,323,l),
(151,659,l),
(220,659,l),
(220,700,l)
);
},
{
closed = 1;
nodes = (
(458,0,l),
(458,40,l),
(360,40,l),
(360,330,l),
(276,330,l),
(276,40,l),
(178,40,l),
(178,0,l)
);
}
);
width = 640;
}
);
unicode = 89;
},
{
glyphname = Z;
lastChange = "2026-01-31 22:21:30 +0000";
layers = (
{
anchors = (
{
name = bottom;
pos = (300,0);
},
{
name = center;
pos = (300,350);
},
{
name = top;
pos = (300,700);
}
);
layerId = m01;
shapes = (
{
closed = 1;
nodes = (
(555,0,l),
(552,82,o),
(552,98,o),
(555,180,c),
(500,180,l),
(486,40,l),
(80,40,l),
(98,26,l),
(555,649,l),
(555,700,l),
(32,700,l),
(35,617,o),
(35,643,o),
(32,560,c),
(87,560,l),
(101,660,l),
(482,660,l),
(464,668,l),
(24,65,l),
(24,0,l)
);
}
);
width = 599;
}
);
unicode = 90;
},
{
glyphname = H.alt;
lastChange = "2026-01-31 22:21:30 +0000";
layers = (
{
anchors = (
{
name = bottom;
pos = (460,0);
},
{
name = center;
pos = (460,562);
},
{
name = top;
pos = (460,700);
},
{
name = topleft;
pos = (20,700);
}
);
layerId = m01;
shapes = (
{
closed = 1;
nodes = (
(191,-20,o),
(228,26,o),
(235,92,c),
(242,26,o),
(283,-20,o),
(335,-20,c),
(399,-20,o),
(445,45,o),
(445,138,c),
(425,138,l),
(425,92,o),
(406,60,o),
(379,60,cs),
(342,60,o),
(315,152,o),
(315,282,c),
(155,282,l),
(155,152,o),
(131,60,o),
(97,60,cs),
(72,60,o),
(55,89,o),
(55,130,c),
(35,130,l),
(35,42,o),
(81,-20,o),
(145,-20,c)
);
},
{
closed = 1;
nodes = (
(283,702,o),
(242,656,o),
(235,590,c),
(228,656,o),
(191,702,o),
(145,702,c),
(81,702,o),
(35,637,o),
(35,544,c),
(55,544,l),
(55,590,o),
(73,622,o),
(99,622,cs),
(132,622,o),
(155,530,o),
(155,400,c),
(315,400,l),
(315,530,o),
(342,622,o),
(381,622,cs),
(407,622,o),
(425,593,o),
(425,552,c),
(445,552,l),
(445,640,o),
(399,702,o),
(335,702,c)
);
},
{
closed = 1;
nodes = (
(155,282,l),
(315,282,l),
(315,400,l),
(155,400,l)
);
},
{
closed = 1;
nodes = (
(641,-20,o),
(678,26,o),
(685,92,c),
(692,26,o),
(733,-20,o),
(785,-20,c),
(849,-20,o),
(895,45,o),
(895,138,c),
(875,138,l),
(875,92,o),
(856,60,o),
(829,60,cs),
(792,60,o),
(765,152,o),
(765,282,c),
(605,282,l),
(605,152,o),
(581,60,o),
(547,60,cs),
(522,60,o),
(505,89,o),
(505,130,c),
(485,130,l),
(485,42,o),
(531,-20,o),
(595,-20,c)
);
},
{
closed = 1;
nodes = (
(733,702,o),
(692,656,o),
(685,590,c),
(678,656,o),
(641,702,o),
(595,702,c),
(531,702,o),
(485,637,o),
(485,544,c),
(505,544,l),
(505,590,o),
(523,622,o),
(549,622,cs),
(582,622,o),
(605,530,o),
(605,400,c),
(765,400,l),
(765,530,o),
(792,622,o),
(831,622,cs),
(857,622,o),
(875,593,o),
(875,552,c),
(895,552,l),
(895,640,o),
(849,702,o),
(785,702,c)
);
},
{
closed = 1;
nodes = (
(605,282,l),
(765,282,l),
(765,400,l),
(605,400,l)
);
},
{
closed = 1;
nodes = (
(215,271,l),
(725,271,l),
(725,421,l),
(215,421,l)
);
}
);
width = 920;
}
);
},
{
glyphname = I.alt;
lastChange = "2026-01-31 22:21:30 +0000";
layers = (
{
anchors = (
{
name = bottom;
pos = (235,0);
},
{
name = ogonek;
pos = (423,10);
},
{
name = top;
pos = (235,700);
},
{
name = topleft;
pos = (20,700);
}
);
layerId = m01;
shapes = (
{
closed = 1;
nodes = (
(191,-20,o),
(228,26,o),
(235,92,c),
(242,26,o),
(283,-20,o),
(335,-20,c),
(399,-20,o),
(445,45,o),
(445,138,c),
(425,138,l),
(425,92,o),
(406,60,o),
(379,60,cs),
(342,60,o),
(315,152,o),
(315,282,c),
(155,282,l),
(155,152,o),
(131,60,o),
(97,60,cs),
(72,60,o),
(55,89,o),
(55,130,c),
(35,130,l),
(35,42,o),
(81,-20,o),
(145,-20,c)
);
},
{
closed = 1;
nodes = (
(283,702,o),
(242,656,o),
(235,590,c),
(228,656,o),
(191,702,o),
(145,702,c),
(81,702,o),
(35,637,o),
(35,544,c),
(55,544,l),
(55,590,o),
(73,622,o),
(99,622,cs),
(132,622,o),
(155,530,o),
(155,400,c),
(315,400,l),
(315,530,o),
(342,622,o),
(381,622,cs),
(407,622,o),
(425,593,o),
(425,552,c),
(445,552,l),
(445,640,o),
(399,702,o),
(335,702,c)
);
},
{
closed = 1;
nodes = (
(155,282,l),
(315,282,l),
(315,400,l),
(155,400,l)
);
}
);
width = 470;
}
);
},
{
glyphname = R.alt;
lastChange = "2026-01-31 22:21:30 +0000";
layers = (
{
anchors = (
{
name = bottom;
pos = (468,0);
},
{
name = top;
pos = (468,700);
}
);
layerId = m01;
shapes = (
{
closed = 1;
nodes = (
(191,-20,o),
(228,26,o),
(235,92,c),
(242,26,o),
(283,-20,o),
(335,-20,c),
(399,-20,o),
(445,45,o),
(445,138,c),
(425,138,l),
(425,92,o),
(406,60,o),
(379,60,cs),
(342,60,o),
(315,152,o),
(315,282,c),
(155,282,l),
(155,152,o),
(131,60,o),
(97,60,cs),
(72,60,o),
(55,89,o),
(55,130,c),
(35,130,l),
(35,42,o),
(81,-20,o),
(145,-20,c)
);
},
{
closed = 1;
nodes = (
(283,582,o),
(242,536,o),
(235,470,c),
(228,536,o),
(191,582,o),
(145,582,c),
(81,582,o),
(35,517,o),
(35,424,c),
(55,424,l),
(55,470,o),
(73,502,o),
(99,502,cs),
(132,502,o),
(155,410,o),
(155,280,c),
(315,280,l),
(315,410,o),
(342,502,o),
(381,502,cs),
(407,502,o),
(425,473,o),
(425,432,c),
(445,432,l),
(445,520,o),
(399,582,o),
(335,582,c)
);
},
{
closed = 1;
nodes = (
(671,-20,o),
(708,26,o),
(715,92,c),
(722,26,o),
(763,-20,o),
(815,-20,c),
(879,-20,o),
(925,45,o),
(925,138,c),
(905,138,l),
(905,92,o),
(886,60,o),
(859,60,cs),
(822,60,o),
(795,152,o),
(795,282,c),
(635,282,l),
(635,152,o),
(611,60,o),
(577,60,cs),
(552,60,o),
(535,89,o),
(535,130,c),
(515,130,l),
(515,42,o),
(561,-20,o),
(625,-20,c)
);
},
{
closed = 1;
nodes = (
(795,470,l),
(788,536,o),
(734,582,o),
(665,582,c),
(577,582,o),
(515,517,o),
(515,424,c),
(535,424,l),
(535,470,o),
(553,502,o),
(579,502,cs),
(612,502,o),
(635,410,o),
(635,280,c),
(795,280,l)
);
}
);
width = 936;
}
);
},
{
glyphname = a;
lastChange = "2026-02-01 15:35:34 +0000";
layers = (
{
anchors = (
{
name = bottom;
pos = (283,0);
},
{
name = ogonek;
pos = (509,10);
},
{
name = top;
pos = (283,500);
}
);
background = {
shapes = (
{
closed = 1;
nodes = (
(55,160,l),
(55,52,o),
(124,-16,o),
(235,-16,cs),
(346,-16,o),
(415,52,o),
(415,160,c),
(375,158,l),
(375,71,o),
(328,16,o),
(254,16,cs),
(181,16,o),
(135,71,o),
(135,158,c)
);
}
);
};
layerId = m01;
shapes = (
{
closed = 1;
nodes = (
(432,2,o),
(488,2,o),
(545,0,c),
(545,40,l),
(455,40,l),
(455,152,o),
(455,276,o),
(455,340,cs),
(455,448,o),
(386,516,o),
(275,516,cs),
(164,516,o),
(85,448,o),
(85,380,c),
(112,382,o),
(138,382,o),
(165,382,c),
(165,429,o),
(182,484,o),
(256,484,cs),
(329,484,o),
(375,429,o),
(375,342,cs),
(375,40,l),
(375,40,l),
(375,0,l)
);
},
{
closed = 1;
nodes = (
(342,-13,o),
(415,47,o),
(415,143,cs),
(415,238,o),
(342,298,o),
(226,298,cs),
(121,298,o),
(55,238,o),
(55,143,cs),
(55,47,o),
(121,-13,o),
(226,-13,cs)
);
},
{
closed = 1;
nodes = (
(182,22,o),
(145,68,o),
(145,142,cs),
(145,216,o),
(182,263,o),
(242,263,cs),
(324,263,o),
(375,216,o),
(375,142,cs),
(375,68,o),
(324,22,o),
(242,22,cs)
);
}
);
width = 565;
}
);
unicode = 97;
},
{
color = 3;
glyphname = ae;
lastChange = "2026-02-01 14:26:59 +0000";
layers = (
{
layerId = m01;
shapes = (
{
closed = 1;
nodes = (
(619,-13,o),
(688,20,o),
(719,66,c),
(664,100,l),
(646,60,o),
(602,32,o),
(559,32,cs),
(480,32,o),
(425,126,o),
(425,264,cs),
(425,390,o),
(471,483,o),
(537,483,cs),
(604,483,o),
(645,387,o),
(635,252,c),
(635,253,l),
(725,251,l),
(725,252,ls),
(725,408,o),
(645,518,o),
(534,518,cs),
(423,518,o),
(345,409,o),
(345,257,cs),
(345,98,o),
(431,-13,o),
(553,-13,cs)
);
},
{
closed = 1;
nodes = (
(330,-13,o),
(405,52,o),
(405,143,cs),
(405,234,o),
(330,298,o),
(228,298,cs),
(125,298,o),
(55,234,o),
(55,143,cs),
(55,52,o),
(125,-13,o),
(228,-13,cs)
);
},
{
closed = 1;
nodes = (
(184,22,o),
(145,72,o),
(145,143,cs),
(145,213,o),
(184,263,o),
(243,263,cs),
(301,263,o),
(345,213,o),
(345,143,cs),
(345,72,o),
(301,22,o),
(243,22,cs)
);
},
{
closed = 1;
nodes = (
(345,100,l),
(405,140,l),
(405,340,ls),
(405,443,o),
(353,516,o),
(247,516,cs),
(154,516,o),
(85,460,o),
(85,380,c),
(120,381,o),
(153,382,o),
(165,382,c),
(165,442,o),
(198,484,o),
(247,484,cs),
(304,484,o),
(345,425,o),
(345,342,cs),
(345,40,l)
);
},
{
closed = 1;
nodes = (
(482,253,o),
(625,253,o),
(725,251,c),
(676,291,l),
(382,291,l),
(382,251,l)
);
}
);
width = 760;
}
);
unicode = 230;
},
{
glyphname = b;
lastChange = "2026-01-31 22:21:30 +0000";
layers = (
{
anchors = (
{
name = bottom;
pos = (297,0);
},
{
name = center;
pos = (148,640);
},
{
name = top;
pos = (297,500);
}
);
layerId = m01;
shapes = (
{
closed = 1;
nodes = (
(196,513,o),
(139,418,o),
(139,247,cs),
(139,77,o),
(196,-18,o),
(328,-18,cs),
(460,-18,o),
(549,77,o),
(549,247,cs),
(549,418,o),
(460,513,o),
(328,513,cs)
);
},
{
closed = 1;
nodes = (
(402,478,o),
(459,396,o),
(459,248,cs),
(459,100,o),
(402,17,o),
(312,17,cs),
(222,17,o),
(179,100,o),
(179,248,cs),
(179,396,o),
(222,478,o),
(312,478,cs)
);
},
{
closed = 1;
nodes = (
(-1,660,l),
(99,660,l),
(99,40,l),
(-1,40,l),
(-1,0,l),
(59,2,o),
(119,2,o),
(179,0,c),
(179,700,l),
(119,698,o),
(59,698,o),
(-1,700,c)
);
}
);
width = 593;
}
);
unicode = 98;
},
{
glyphname = c;
lastChange = "2026-01-31 22:21:30 +0000";
layers = (
{
anchors = (
{
name = bottom;
pos = (260,0);
},
{
name = top;
pos = (260,500);
}
);
background = {
shapes = (
{
closed = 1;
nodes = (
(504,251,l),
(504,252,o),
(504,252,o),
(504,252,cs),
(504,408,o),
(409,518,o),
(274,518,cs),
(139,518,o),
(44,408,o),
(44,252,cs),
(44,97,o),
(148,-13,o),
(294,-13,cs),
(369,-13,o),
(449,28,o),
(488,86,c),
(431,118,l),
(409,68,o),
(352,32,o),
(294,32,cs),
(200,32,o),
(134,123,o),
(134,252,cs),
(134,387,o),
(192,483,o),
(274,483,cs),
(356,483,o),
(414,387,o),
(414,252,cs),
(414,252,o),
(414,252,o),
(414,251,c)
);
},
{
closed = 1;
nodes = (
(91,251,l),
(455,251,l),
(455,291,l),
(91,291,l)
);
}
);
};
layerId = m01;
shapes = (
{
closed = 1;
nodes = (
(369,-13,o),
(449,28,o),
(488,86,c),
(431,118,l),
(409,68,o),
(352,32,o),
(294,32,cs),
(200,32,o),
(134,123,o),
(134,252,cs),
(134,387,o),
(196,483,o),
(284,483,cs),
(362,483,o),
(417,432,o),
(417,361,cs),
(417,318,l),
(457,318,l),
(456,371,o),
(456,447,o),
(457,500,c),
(417,500,l),
(417,471,l),
(388,499,o),
(333,518,o),
(284,518,cs),
(143,518,o),
(44,408,o),
(44,252,cs),
(44,97,o),
(148,-13,o),
(294,-13,cs)
);
}
);
width = 519;
}
);
unicode = 99;
},
{
glyphname = d;
lastChange = "2026-01-31 22:21:30 +0000";
layers = (
{
anchors = (
{
name = bottom;
pos = (302,0);
},
{
name = center;
pos = (453,640);
},
{
name = top;
pos = (302,500);
},
{
name = topright;
pos = (594,800);
}
);
layerId = m01;
shapes = (
{
closed = 1;
nodes = (
(133,513,o),
(44,418,o),
(44,247,cs),
(44,77,o),
(133,-18,o),
(265,-18,cs),
(397,-18,o),
(454,77,o),
(454,247,cs),
(454,418,o),
(397,513,o),
(265,513,cs)
);
},
{
closed = 1;
nodes = (
(371,478,o),
(414,396,o),
(414,248,cs),
(414,100,o),
(371,17,o),
(281,17,cs),
(191,17,o),
(134,100,o),
(134,248,cs),
(134,396,o),
(191,478,o),
(281,478,cs)
);
},
{
closed = 1;
nodes = (
(434,698,o),
(374,698,o),
(314,700,c),
(314,660,l),
(414,660,l),
(414,0,l),
(474,2,o),
(534,2,o),
(594,0,c),
(594,40,l),
(494,40,l),
(494,700,l)
);
}
);
width = 604;
}
);
unicode = 100;
},
{
color = 3;
glyphname = eth;
lastChange = "2026-02-01 11:28:07 +0000";
layers = (
{
layerId = m01;
shapes = (
{
closed = 1;
nodes = (
(149,513,o),
(64,410,o),
(64,247,cs),
(64,84,o),
(149,-18,o),
(285,-18,cs),
(401,-18,o),
(484,84,o),
(484,247,cs),
(484,410,o),
(401,513,o),
(285,513,cs)
);
},
{
closed = 1;
nodes = (
(383,478,o),
(444,389,o),
(444,248,cs),
(444,106,o),
(383,17,o),
(301,17,cs),
(211,17,o),
(154,106,o),
(154,248,cs),
(154,389,o),
(211,478,o),
(301,478,cs)
);
},
{
closed = 1;
nodes = (
(423,-17,o),
(519,102,o),
(519,290,cs),
(519,542,o),
(419,713,o),
(291,713,c),
(272,681,l),
(363,681,o),
(437,533,o),
(437,278,cs),
(437,118,o),
(378,17,o),
(301,17,c),
(285,-18,l)
);
},
{
closed = 1;
nodes = (
(530,646,l),
(489,683,l),
(261,594,l),
(304,557,l)
);
}
);
width = 564;
}
);
unicode = 240;
},
{
glyphname = e;
lastChange = "2026-01-31 22:21:30 +0000";
layers = (
{
anchors = (
{
name = bottom;
pos = (269,0);
},
{
name = ogonek;
pos = (483,10);
},
{
name = top;
pos = (269,500);
}
);
background = {
shapes = (
{
closed = 1;
nodes = (
(440,-13,o),
(544,97,o),
(544,252,cs),
(544,408,o),
(440,518,o),
(294,518,cs),
(148,518,o),
(44,408,o),
(44,252,cs),
(44,97,o),
(148,-13,o),
(294,-13,cs)
);
},
{
closed = 1;
nodes = (
(200,22,o),
(134,117,o),
(134,252,cs),
(134,387,o),
(200,483,o),
(294,483,cs),
(388,483,o),
(454,387,o),
(454,252,cs),
(454,117,o),
(388,22,o),
(294,22,cs)
);
}
);
};
layerId = m01;
shapes = (
{
closed = 1;
nodes = (
(504,251,l),
(504,252,o),
(504,252,o),
(504,252,cs),
(504,408,o),
(409,518,o),
(274,518,cs),
(139,518,o),
(44,408,o),
(44,252,cs),
(44,97,o),
(148,-13,o),
(294,-13,cs),
(369,-13,o),
(449,28,o),
(488,86,c),
(433,120,l),
(411,70,o),
(352,32,o),
(294,32,cs),
(200,32,o),
(134,123,o),
(134,252,cs),
(134,387,o),
(192,483,o),
(274,483,cs),
(356,483,o),
(414,387,o),
(414,252,cs),
(414,252,o),
(414,254,o),
(414,253,c)
);
},
{
closed = 1;
nodes = (
(91,251,l),
(212,253,o),
(383,253,o),
(504,251,c),
(455,291,l),
(91,291,l)
);
}
);
width = 537;
}
);
unicode = 101;
},
{
glyphname = f;
lastChange = "2026-01-31 22:21:30 +0000";
layers = (
{
anchors = (
{
name = bottom;
pos = (176,0);
},
{
name = top;
pos = (176,800);
}
);
background = {
shapes = (
{
closed = 1;
nodes = (
(141,558,o),
(224,654,o),
(341,614,c),
(341,714,l),
(212,714,o),
(121,605,o),
(121,450,c),
(141,450,l)
);
}
);
};
layerId = m01;
shapes = (
{
closed = 1;
nodes = (
(111,2,o),
(201,2,o),
(291,0,c),
(291,40,l),
(201,40,l),
(201,500,ls),
(201,595,o),
(161,675,o),
(341,614,c),
(342,647,o),
(342,681,o),
(341,714,c),
(212,714,o),
(121,625,o),
(121,500,cs),
(121,40,l),
(21,40,l),
(21,0,l)
);
},
{
closed = 1;
nodes = (
(21,458,l),
(140,461,l),
(321,458,l),
(321,502,l),
(140,499,l),
(21,502,l)
);
}
);
width = 352;
}
);
unicode = 102;
},
{
glyphname = g;
lastChange = "2026-01-31 22:21:30 +0000";
layers = (
{
anchors = (
{
name = bottom;
pos = (288,-200);
},
{
name = top;
pos = (288,500);
}
);
background = {
shapes = (
{
closed = 1;
nodes = (
(594,-160,l),
(494,-160,l),
(494,460,l),
(594,460,l),
(594,500,l),
(414,500,l),
(414,-160,l),
(314,-160,l),
(314,-200,l),
(594,-200,l)
);
}
);
};
layerId = m01;
shapes = (
{
closed = 1;
nodes = (
(397,-13,o),
(454,82,o),
(454,253,cs),
(454,423,o),
(397,518,o),
(265,518,cs),
(133,518,o),
(44,423,o),
(44,253,cs),
(44,82,o),
(133,-13,o),
(265,-13,cs)
);
},
{
closed = 1;
nodes = (
(191,22,o),
(134,104,o),
(134,252,cs),
(134,400,o),
(191,483,o),
(281,483,cs),
(371,483,o),
(414,400,o),
(414,252,cs),
(414,104,o),
(371,22,o),
(281,22,cs)
);
},
{
closed = 1;
nodes = (
(414,260,l),
(414,260,l),
(414,-42,ls),
(414,-125,o),
(352,-184,o),
(265,-184,cs),
(194,-184,o),
(144,-125,o),
(144,-41,c),
(64,-41,l),
(64,-143,o),
(147,-216,o),
(264,-216,cs),
(399,-216,o),
(494,-143,o),
(494,-40,cs),
(494,24,o),
(494,348,o),
(494,460,c),
(584,460,l),
(584,500,l),
(534,498,o),
(464,498,o),
(414,500,c)
);
}
);
width = 575;
}
);
unicode = 103;
},
{
glyphname = h;
lastChange = "2026-01-31 22:21:30 +0000";
layers = (
{
anchors = (
{
name = bottom;
pos = (300,0);
},
{
name = center;
pos = (150,640);
},
{
name = top;
pos = (300,800);
}
);
layerId = m01;
shapes = (
{
closed = 1;
nodes = (
(103,2,o),
(197,2,o),
(290,0,c),
(290,40,l),
(190,40,l),
(190,700,l),
(130,698,o),
(70,698,o),
(10,700,c),
(10,660,l),
(110,660,l),
(110,40,l),
(10,40,l),
(10,0,l)
);
},
{
closed = 1;
nodes = (
(417,2,o),
(503,2,o),
(590,0,c),
(590,40,l),
(510,40,l),
(510,152,o),
(510,276,o),
(510,340,cs),
(510,448,o),
(441,516,o),
(330,516,cs),
(219,516,o),
(150,448,o),
(150,340,c),
(190,342,l),
(190,429,o),
(237,484,o),
(311,484,cs),
(384,484,o),
(430,429,o),
(430,342,cs),
(430,40,l),
(330,40,l),
(330,0,l)
);
}
);
width = 600;
}
);
unicode = 104;
},
{
glyphname = i;
lastChange = "2026-01-31 22:21:30 +0000";
layers = (
{
anchors = (
{
name = bottom;
pos = (156,0);
}
);
layerId = m01;
shapes = (
{
closed = 1;
nodes = (
(111,2,o),
(201,2,o),
(291,0,c),
(291,40,l),
(201,40,l),
(201,500,l),
(141,498,o),
(81,498,o),
(21,500,c),
(21,460,l),
(121,460,l),
(121,40,l),
(21,40,l),
(21,0,l)
);
},
{
closed = 1;
nodes = (
(182,629,o),
(207,654,o),
(234,677,c),
(207,700,o),
(182,725,o),
(159,752,c),
(136,725,o),
(111,700,o),
(84,677,c),
(111,654,o),
(136,629,o),
(159,602,c)
);
}
);
width = 311;
}
);
unicode = 105;
},
{
glyphname = idotless;
lastChange = "2026-01-31 22:21:30 +0000";
layers = (
{
anchors = (
{
name = bottom;
pos = (156,0);
},
{
name = ogonek;
pos = (291,0);
},
{
name = top;
pos = (156,500);
}
);
layerId = m01;
shapes = (
{
closed = 1;
nodes = (
(111,2,o),
(201,2,o),
(291,0,c),
(291,40,l),
(201,40,l),
(201,500,l),
(141,498,o),
(81,498,o),
(21,500,c),
(21,460,l),
(121,460,l),
(121,40,l),
(21,40,l),
(21,0,l)
);
}
);
width = 311;
}
);
unicode = 305;
},
{
glyphname = j;
lastChange = "2026-01-31 13:51:08 +0000";
layers = (
{
layerId = m01;
shapes = (
{
closed = 1;
nodes = (
(110,-68,o),
(96,-176,o),
(20,-183,c),
(20,-216,l),
(143,-216,o),
(190,-93,o),
(190,80,cs),
(190,500,l),
(130,498,o),
(70,498,o),
(10,500,c),
(10,460,l),
(110,460,l),
(110,78,ls)
);
},
{
closed = 1;
nodes = (
(172,629,o),
(197,654,o),
(224,677,c),
(197,700,o),
(172,725,o),
(149,752,c),
(126,725,o),
(101,700,o),
(74,677,c),
(101,654,o),
(126,629,o),
(149,602,c)
);
}
);
width = 289;
}
);
unicode = 106;
},
{
glyphname = jdotless;
lastChange = "2026-01-31 22:21:30 +0000";
layers = (
{
anchors = (
{
name = bottom;
pos = (145,-200);
},
{
name = top;
pos = (145,500);
}
);
layerId = m01;
shapes = (
{
closed = 1;
nodes = (
(110,-68,o),
(96,-176,o),
(20,-183,c),
(20,-216,l),
(143,-216,o),
(190,-93,o),
(190,80,cs),
(190,500,l),
(130,498,o),
(70,498,o),
(10,500,c),
(10,460,l),
(110,460,l),
(110,78,ls)
);
}
);
width = 289;
}
);
unicode = 567;
},
{
glyphname = k;
lastChange = "2026-01-31 22:21:30 +0000";
layers = (
{
anchors = (
{
name = bottom;
pos = (295,0);
},
{
name = top;
pos = (295,800);
}
);
layerId = m01;
shapes = (
{
closed = 1;
nodes = (
(103,-2,o),
(197,-2,o),
(290,0,c),
(290,40,l),
(190,40,l),
(190,700,l),
(130,698,o),
(70,698,o),
(10,700,c),
(10,660,l),
(110,660,l),
(110,40,l),
(10,40,l),
(10,0,l)
);
},
{
closed = 1;
nodes = (
(456,460,l),
(530,460,l),
(530,500,l),
(457,498,o),
(384,498,o),
(311,500,c),
(311,460,l),
(395,460,l),
(135,210,l),
(161,179,l)
);
},
{
closed = 1;
nodes = (
(443,2,o),
(517,2,o),
(590,0,c),
(590,40,l),
(536,40,l),
(287,338,l),
(229,282,l),
(432,40,l),
(370,40,l),
(370,0,l)
);
}
);
width = 590;
}
);
unicode = 107;
},
{
glyphname = l;
lastChange = "2026-01-31 22:21:30 +0000";
layers = (
{
anchors = (
{
name = bottom;
pos = (150,0);
},
{
name = center;
pos = (150,400);
},
{
name = top;
pos = (150,800);
},
{
name = topright;
pos = (280,800);
}
);
layerId = m01;
shapes = (
{
closed = 1;
nodes = (
(100,2,o),
(190,2,o),
(280,0,c),
(280,40,l),
(190,40,l),
(190,700,l),
(130,698,o),
(70,698,o),
(10,700,c),
(10,660,l),
(110,660,l),
(110,40,l),
(10,40,l),
(10,0,l)
);
}
);
width = 300;
}
);
unicode = 108;
},
{
glyphname = m;
lastChange = "2026-01-31 22:21:30 +0000";
layers = (
{
anchors = (
{
name = bottom;
pos = (466,0);
},
{
name = top;
pos = (466,500);
}
);
layerId = m01;
shapes = (
{
closed = 1;
nodes = (
(114,2,o),
(208,2,o),
(301,0,c),
(301,40,l),
(201,40,l),
(201,500,l),
(141,498,o),
(81,498,o),
(21,500,c),
(21,460,l),
(121,460,l),
(121,40,l),
(21,40,l),
(21,0,l)
);
},
{
closed = 1;
nodes = (
(431,2,o),
(521,2,o),
(611,0,c),
(611,40,l),
(521,40,l),
(521,152,o),
(521,276,o),
(521,340,cs),
(521,448,o),
(452,516,o),
(341,516,cs),
(230,516,o),
(161,448,o),
(161,340,c),
(201,342,l),
(201,429,o),
(248,484,o),
(322,484,cs),
(395,484,o),
(441,429,o),
(441,342,cs),
(441,40,l),
(341,40,l),
(341,0,l)
);
},
{
closed = 1;
nodes = (
(748,2,o),
(834,2,o),
(921,0,c),
(921,40,l),
(841,40,l),
(841,152,o),
(841,276,o),
(841,340,cs),
(841,448,o),
(772,516,o),
(661,516,cs),
(550,516,o),
(481,448,o),
(481,340,c),
(521,342,l),
(521,429,o),
(568,484,o),
(642,484,cs),
(715,484,o),
(761,429,o),
(761,342,cs),
(761,40,l),
(661,40,l),
(661,0,l)
);
}
);
width = 931;
}
);
unicode = 109;
},
{
glyphname = n;
lastChange = "2026-01-31 22:21:30 +0000";
layers = (
{
anchors = (
{
name = bottom;
pos = (306,0);
},
{
name = top;
pos = (306,500);
}
);
annotations = (
{
pos = (809.532,-177.422);
type = Minus;
}
);
layerId = m01;
shapes = (
{
closed = 1;
nodes = (
(114,2,o),
(208,2,o),
(301,0,c),
(301,40,l),
(201,40,l),
(201,500,l),
(141,498,o),
(81,498,o),
(21,500,c),
(21,460,l),
(121,460,l),
(123,320,o),
(123,180,o),
(121,40,c),
(21,40,l),
(21,0,l)
);
},
{
closed = 1;
nodes = (
(428,2,o),
(514,2,o),
(601,0,c),
(601,40,l),
(521,40,l),
(521,152,o),
(521,276,o),
(521,340,cs),
(521,448,o),
(452,516,o),
(341,516,cs),
(230,516,o),
(161,448,o),
(161,340,c),
(201,342,l),
(201,429,o),
(248,484,o),
(322,484,cs),
(395,484,o),
(439,429,o),
(441,342,cs),
(443,241,o),
(443,141,o),
(441,40,c),
(341,40,l),
(341,0,l)
);
}
);
width = 611;
}
);
unicode = 110;
},
{
glyphname = o;
lastChange = "2026-01-31 22:21:30 +0000";
layers = (
{
anchors = (
{
name = bottom;
pos = (294,0);
},
{
name = center;
pos = (294,250);
},
{
name = ogonek;
pos = (529,10);
},
{
name = top;
pos = (294,500);
},
{
name = topright;
pos = (568,500);
}
);
background = {
shapes = (
{
closed = 1;
nodes = (
(254,0,l),
(254,40,l),
(174,40,l),
(174,500,l),
(14,500,l),
(14,460,l),
(94,460,l),
(94,40,l),
(14,40,l),
(14,0,l)
);
},
{
closed = 1;
nodes = (
(574,0,l),
(574,40,l),
(494,40,l),
(494,152,o),
(494,276,o),
(494,340,cs),
(494,448,o),
(425,516,o),
(314,516,cs),
(203,516,o),
(134,448,o),
(134,340,c),
(174,342,l),
(174,429,o),
(221,484,o),
(295,484,cs),
(368,484,o),
(414,429,o),
(414,342,cs),
(414,40,l),
(334,40,l),
(334,0,l)
);
}
);
};
layerId = m01;
shapes = (
{
closed = 1;
nodes = (
(440,-13,o),
(544,97,o),
(544,252,cs),
(544,408,o),
(440,518,o),
(294,518,cs),
(148,518,o),
(44,408,o),
(44,252,cs),
(44,97,o),
(148,-13,o),
(294,-13,cs)
);
},
{
closed = 1;
nodes = (
(200,22,o),
(134,117,o),
(134,252,cs),
(134,387,o),
(200,483,o),
(294,483,cs),
(388,483,o),
(454,387,o),
(454,252,cs),
(454,117,o),
(388,22,o),
(294,22,cs)
);
}
);
width = 588;
}
);
unicode = 111;
},
{
color = 3;
glyphname = oslash;
lastChange = "2026-02-01 11:09:23 +0000";
layers = (
{
layerId = m01;
shapes = (
{
ref = o;
},
{
closed = 1;
nodes = (
(40,-16,l),
(93,-16,l),
(536,500,l),
(483,500,l)
);
}
);
width = 588;
}
);
unicode = 248;
},
{
color = 3;
glyphname = oe;
lastChange = "2026-02-01 14:26:06 +0000";
layers = (
{
layerId = m01;
shapes = (
{
closed = 1;
nodes = (
(401,-13,o),
(494,97,o),
(494,253,cs),
(494,408,o),
(401,518,o),
(269,518,cs),
(137,518,o),
(44,408,o),
(44,253,cs),
(44,97,o),
(137,-13,o),
(269,-13,cs)
);
},
{
closed = 1;
nodes = (
(190,22,o),
(134,117,o),
(134,252,cs),
(134,387,o),
(190,483,o),
(269,483,cs),
(348,483,o),
(404,387,o),
(404,252,cs),
(404,117,o),
(348,22,o),
(269,22,cs)
);
},
{
closed = 1;
nodes = (
(698,-13,o),
(773,24,o),
(808,76,c),
(753,110,l),
(733,64,o),
(685,32,o),
(637,32,cs),
(553,32,o),
(494,128,o),
(494,265,cs),
(494,392,o),
(544,483,o),
(615,483,cs),
(688,483,o),
(734,387,o),
(724,252,c),
(724,253,l),
(814,251,l),
(814,252,ls),
(814,408,o),
(729,518,o),
(608,518,cs),
(489,518,o),
(404,410,o),
(404,258,cs),
(404,99,o),
(497,-13,o),
(625,-13,cs)
);
},
{
closed = 1;
nodes = (
(567,253,o),
(713,253,o),
(814,251,c),
(775,291,l),
(461,291,l),
(461,251,l)
);
}
);
width = 848;
}
);
unicode = 339;
},
{
glyphname = p;
lastChange = "2026-01-31 22:21:30 +0000";
layers = (
{
anchors = (
{
name = bottom;
pos = (302,0);
},
{
name = top;
pos = (302,500);
}
);
layerId = m01;
shapes = (
{
closed = 1;
nodes = (
(471,-13,o),
(560,82,o),
(560,253,cs),
(560,423,o),
(471,518,o),
(339,518,cs),
(207,518,o),
(150,423,o),
(150,253,cs),
(150,82,o),
(207,-13,o),
(339,-13,cs)
);
},
{
closed = 1;
nodes = (
(233,22,o),
(190,104,o),
(190,252,cs),
(190,400,o),
(233,483,o),
(323,483,cs),
(413,483,o),
(470,400,o),
(470,252,cs),
(470,104,o),
(413,22,o),
(323,22,cs)
);
},
{
closed = 1;
nodes = (
(103,-198,o),
(197,-198,o),
(290,-200,c),
(290,-160,l),
(190,-160,l),
(190,500,l),
(130,498,o),
(70,498,o),
(10,500,c),
(10,460,l),
(110,460,l),
(110,-160,l),
(10,-160,l),
(10,-200,l)
);
}
);
width = 604;
}
);
unicode = 112;
},
{
color = 3;
glyphname = thorn;
lastChange = "2026-02-01 11:21:08 +0000";
layers = (
{
layerId = m01;
shapes = (
{
closed = 1;
nodes = (
(471,-13,o),
(560,82,o),
(560,253,cs),
(560,423,o),
(471,518,o),
(339,518,cs),
(207,518,o),
(150,423,o),
(150,253,cs),
(150,82,o),
(207,-13,o),
(339,-13,cs)
);
},
{
closed = 1;
nodes = (
(233,22,o),
(190,104,o),
(190,252,cs),
(190,400,o),
(233,483,o),
(323,483,cs),
(413,483,o),
(470,400,o),
(470,252,cs),
(470,104,o),
(413,22,o),
(323,22,cs)
);
},
{
closed = 1;
nodes = (
(103,-198,o),
(197,-198,o),
(290,-200,c),
(290,-160,l),
(190,-160,l),
(190,700,l),
(130,698,o),
(70,698,o),
(10,700,c),
(10,660,l),
(110,660,l),
(110,-160,l),
(10,-160,l),
(10,-200,l)
);
}
);
width = 604;
}
);
unicode = 254;
},
{
glyphname = q;
lastChange = "2026-01-31 22:21:30 +0000";
layers = (
{
anchors = (
{
name = bottom;
pos = (297,0);
},
{
name = top;
pos = (297,500);
}
);
layerId = m01;
shapes = (
{
closed = 1;
nodes = (
(397,-13,o),
(454,82,o),
(454,253,cs),
(454,423,o),
(397,518,o),
(265,518,cs),
(133,518,o),
(44,423,o),
(44,253,cs),
(44,82,o),
(133,-13,o),
(265,-13,cs)
);
},
{
closed = 1;
nodes = (
(191,22,o),
(134,104,o),
(134,252,cs),
(134,400,o),
(191,483,o),
(281,483,cs),
(371,483,o),
(414,400,o),
(414,252,cs),
(414,104,o),
(371,22,o),
(281,22,cs)
);
},
{
closed = 1;
nodes = (
(594,-160,l),
(494,-160,l),
(494,460,l),
(594,460,l),
(594,500,l),
(534,498,o),
(474,498,o),
(414,500,c),
(414,-160,l),
(314,-160,l),
(314,-200,l),
(407,-198,o),
(501,-198,o),
(594,-200,c)
);
}
);
width = 593;
}
);
unicode = 113;
},
{
glyphname = r;
lastChange = "2026-01-31 22:21:30 +0000";
layers = (
{
anchors = (
{
name = bottom;
pos = (201,0);
},
{
name = top;
pos = (201,500);
}
);
layerId = m01;
shapes = (
{
closed = 1;
nodes = (
(114,2,o),
(208,2,o),
(301,0,c),
(301,40,l),
(201,40,l),
(201,500,l),
(141,498,o),
(81,498,o),
(21,500,c),
(21,460,l),
(121,460,l),
(121,40,l),
(21,40,l),
(21,0,l)
);
},
{
closed = 1;
nodes = (
(201,360,o),
(264,456,o),
(381,432,c),
(381,516,l),
(252,516,o),
(181,407,o),
(181,252,c),
(201,252,l)
);
}
);
width = 401;
}
);
unicode = 114;
},
{
glyphname = s;
lastChange = "2026-01-31 22:21:30 +0000";
layers = (
{
anchors = (
{
name = bottom;
pos = (234,0);
},
{
name = top;
pos = (234,500);
}
);
background = {
shapes = (
{
closed = 1;
nodes = (
(130,516,o),
(64,459,o),
(64,371,cs),
(64,196,o),
(324,221,o),
(324,100,cs),
(324,52,o),
(282,24,o),
(228,24,cs),
(165,24,o),
(124,63,o),
(124,119,cs),
(124,162,l),
(84,162,l),
(86,108,o),
(86,54,o),
(84,0,c),
(124,0,l),
(124,51,l),
(103,54,l),
(129,13,o),
(179,-16,o),
(242,-16,cs),
(328,-16,o),
(403,37,o),
(403,127,cs),
(403,295,o),
(143,269,o),
(143,398,cs),
(143,444,o),
(176,476,o),
(237,476,cs),
(306,476,o),
(364,435,o),
(364,377,cs),
(364,340,l),
(404,340,l),
(402,393,o),
(402,447,o),
(404,500,c),
(364,500,l),
(364,440,l),
(382,440,l),
(357,485,o),
(291,516,o),
(223,516,cs)
);
}
);
};
layerId = m01;
shapes = (
{
closed = 1;
nodes = (
(344,-16,o),
(414,44,o),
(414,129,cs),
(414,304,o),
(144,279,o),
(144,400,cs),
(144,447,o),
(185,476,o),
(250,476,cs),
(311,476,o),
(354,437,o),
(354,381,cs),
(354,338,l),
(394,338,l),
(392,385,o),
(392,453,o),
(394,500,c),
(354,500,l),
(354,449,l),
(375,446,l),
(349,487,o),
(291,516,o),
(236,516,cs),
(142,516,o),
(75,457,o),
(75,373,cs),
(75,205,o),
(345,231,o),
(345,102,cs),
(345,54,o),
(301,24,o),
(231,24,cs),
(166,24,o),
(114,70,o),
(114,128,cs),
(114,160,l),
(74,160,l),
(76,113,o),
(76,47,o),
(74,0,c),
(114,0,l),
(114,60,l),
(96,60,l),
(123,11,o),
(176,-16,o),
(245,-16,cs)
);
}
);
width = 468;
}
);
unicode = 115;
},
{
glyphname = germandbls;
lastChange = "2026-02-01 11:43:46 +0000";
layers = (
{
anchors = (
{
name = bottom;
pos = (290,0);
},
{
name = top;
pos = (290,800);
}
);
background = {
shapes = (
{
closed = 1;
nodes = (
(111,2,o),
(201,2,o),
(291,0,c),
(291,40,l),
(201,40,l),
(201,500,ls),
(201,595,o),
(161,675,o),
(341,614,c),
(342,647,o),
(342,681,o),
(341,714,c),
(212,714,o),
(121,625,o),
(121,500,cs),
(121,40,l),
(21,40,l),
(21,0,l)
);
},
{
closed = 1;
nodes = (
(21,458,l),
(140,461,l),
(321,458,l),
(321,502,l),
(140,499,l),
(21,502,l)
);
},
{
closed = 1;
nodes = (
(474,-16,o),
(524,44,o),
(524,129,cs),
(524,304,o),
(330,279,o),
(330,400,cs),
(330,447,o),
(359,476,o),
(406,476,cs),
(450,476,o),
(481,437,o),
(481,381,cs),
(481,338,l),
(510,338,l),
(508,385,o),
(508,453,o),
(510,500,c),
(481,500,l),
(481,449,l),
(496,446,l),
(477,487,o),
(436,516,o),
(396,516,cs),
(328,516,o),
(280,457,o),
(280,373,cs),
(280,205,o),
(475,231,o),
(475,102,cs),
(475,54,o),
(443,24,o),
(392,24,cs),
(345,24,o),
(308,70,o),
(308,128,cs),
(308,160,l),
(279,160,l),
(280,113,o),
(280,47,o),
(279,0,c),
(308,0,l),
(308,60,l),
(295,60,l),
(314,11,o),
(353,-16,o),
(402,-16,cs)
);
}
);
};
layerId = m01;
shapes = (
{
closed = 1;
nodes = (
(200,0,l),
(200,167,o),
(200,452,o),
(200,501,cs),
(200,603,o),
(255,675,o),
(332,675,cs),
(384,675,o),
(420,627,o),
(420,560,cs),
(420,467,o),
(300,493,o),
(300,343,cs),
(300,205,o),
(495,211,o),
(495,103,cs),
(495,57,o),
(452,24,o),
(392,24,cs),
(334,24,o),
(308,64,o),
(328,120,c),
(280,120,l),
(279,40,o),
(330,-16,o),
(402,-16,cs),
(485,-16,o),
(544,44,o),
(544,130,cs),
(544,284,o),
(350,279,o),
(350,372,cs),
(350,482,o),
(500,431,o),
(500,570,cs),
(500,655,o),
(430,715,o),
(332,715,cs),
(212,715,o),
(120,626,o),
(120,501,c),
(22,501,l),
(22,458,l),
(121,458,l),
(121,41,l),
(21,41,l),
(21,0,l)
);
}
);
width = 600;
}
);
unicode = 223;
},
{
glyphname = t;
lastChange = "2026-01-31 22:21:30 +0000";
layers = (
{
anchors = (
{
name = bottom;
pos = (178,0);
},
{
name = center;
pos = (178,250);
},
{
name = top;
pos = (178,612);
},
{
name = topright;
pos = (335,800);
}
);
background = {
shapes = (
{
closed = 1;
nodes = (
(289,0,l),
(289,40,l),
(199,40,l),
(199,500,ls),
(199,631,o),
(200,676,o),
(255,676,cs),
(305,676,o),
(359,640,o),
(359,561,cs),
(359,540,l),
(399,540,l),
(399,700,l),
(358,700,l),
(358,629,l),
(375,643,l),
(356,689,o),
(303,716,o),
(253,716,cs),
(179,716,o),
(119,655,o),
(119,500,cs),
(119,40,l),
(19,40,l),
(19,0,l)
);
},
{
closed = 1;
nodes = (
(19,460,l),
(299,460,l),
(299,500,l),
(19,500,l)
);
}
);
};
layerId = m01;
shapes = (
{
closed = 1;
nodes = (
(256,-15,o),
(310,9,o),
(340,43,c),
(319,72,l),
(301,54,o),
(271,41,o),
(248,41,cs),
(218,41,o),
(199,64,o),
(199,97,cs),
(199,612,l),
(172,607,o),
(146,601,o),
(119,592,c),
(119,408,o),
(119,103,o),
(119,80,cs),
(119,24,o),
(157,-15,o),
(210,-15,cs)
);
},
{
closed = 1;
nodes = (
(136,461,l),
(339,458,l),
(339,502,l),
(136,499,l),
(19,502,l),
(19,458,l)
);
}
);
width = 355;
}
);
unicode = 116;
},
{
glyphname = u;
lastChange = "2026-01-31 22:21:30 +0000";
layers = (
{
anchors = (
{
name = bottom;
pos = (306,0);
},
{
name = ogonek;
pos = (550,10);
},
{
name = top;
pos = (306,500);
},
{
name = topright;
pos = (591,500);
}
);
layerId = m01;
shapes = (
{
closed = 1;
nodes = (
(450,498,o),
(390,498,o),
(330,500,c),
(330,460,l),
(430,460,l),
(430,0,l),
(487,2,o),
(543,2,o),
(600,0,c),
(600,40,l),
(510,40,l),
(510,460,l),
(510,460,l),
(510,500,l)
);
},
{
closed = 1;
nodes = (
(133,498,o),
(77,498,o),
(20,500,c),
(20,460,l),
(110,460,l),
(110,348,o),
(110,224,o),
(110,160,cs),
(110,57,o),
(185,-16,o),
(290,-16,cs),
(401,-16,o),
(470,52,o),
(470,160,c),
(430,158,l),
(430,71,o),
(393,26,o),
(319,26,cs),
(243,26,o),
(190,81,o),
(190,158,cs),
(190,460,l),
(190,460,l),
(190,500,l)
);
}
);
width = 611;
}
);
unicode = 117;
},
{
glyphname = v;
lastChange = "2026-01-31 22:21:30 +0000";
layers = (
{
anchors = (
{
name = bottom;
pos = (270,0);
},
{
name = top;
pos = (270,500);
}
);
background = {
shapes = (
{
closed = 1;
nodes = (
(506,460,l),
(580,460,l),
(580,500,l),
(361,500,l),
(361,460,l),
(445,460,l),
(185,32,l),
(211,1,l)
);
},
{
closed = 1;
nodes = (
(0,500,l),
(0,460,l),
(54,460,l),
(303,-16,l),
(361,40,l),
(158,460,l),
(220,460,l),
(220,500,l)
);
},
{
closed = 1;
nodes = (
(300,500,l),
(300,460,l),
(400,460,l),
(400,0,l),
(570,0,l),
(570,40,l),
(480,40,l),
(480,460,l),
(480,460,l),
(480,500,l)
);
},
{
closed = 1;
nodes = (
(-10,500,l),
(-10,460,l),
(80,460,l),
(80,348,o),
(80,224,o),
(80,160,cs),
(80,52,o),
(149,-16,o),
(260,-16,cs),
(371,-16,o),
(440,52,o),
(440,160,c),
(400,158,l),
(400,71,o),
(353,16,o),
(279,16,cs),
(206,16,o),
(160,71,o),
(160,158,cs),
(160,460,l),
(160,460,l),
(160,500,l)
);
}
);
};
layerId = m01;
shapes = (
{
closed = 1;
nodes = (
(463,460,l),
(540,460,l),
(540,500,l),
(474,498,o),
(407,498,o),
(341,500,c),
(341,460,l),
(419,460,l),
(257,77,l),
(260,-16,l)
);
},
{
closed = 1;
nodes = (
(147,498,o),
(73,498,o),
(0,500,c),
(0,460,l),
(72,460,l),
(260,-16,l),
(297,107,l),
(158,460,l),
(220,460,l),
(220,500,l)
);
}
);
width = 540;
}
);
unicode = 118;
},
{
glyphname = w;
lastChange = "2026-01-31 22:21:30 +0000";
layers = (
{
anchors = (
{
name = bottom;
pos = (420,0);
},
{
name = top;
pos = (420,500);
}
);
layerId = m01;
shapes = (
{
closed = 1;
nodes = (
(463,460,l),
(540,460,l),
(540,500,l),
(474,498,o),
(407,497,o),
(341,499,c),
(341,460,l),
(419,460,l),
(257,77,l),
(260,-16,l)
);
},
{
closed = 1;
nodes = (
(147,498,o),
(73,498,o),
(0,500,c),
(0,460,l),
(72,460,l),
(260,-16,l),
(297,107,l),
(158,460,l),
(220,460,l),
(220,500,l)
);
},
{
closed = 1;
nodes = (
(763,460,l),
(840,460,l),
(840,500,l),
(774,498,o),
(707,498,o),
(641,500,c),
(641,460,l),
(719,460,l),
(557,77,l),
(560,-16,l)
);
},
{
closed = 1;
nodes = (
(447,497,o),
(373,498,o),
(300,500,c),
(300,460,l),
(372,460,l),
(560,-16,l),
(597,107,l),
(458,460,l),
(520,460,l),
(520,499,l)
);
}
);
width = 840;
}
);
unicode = 119;
},
{
glyphname = x;
lastChange = "2026-01-31 22:21:30 +0000";
layers = (
{
anchors = (
{
name = bottom;
pos = (280,0);
},
{
name = top;
pos = (280,500);
}
);
background = {
shapes = (
{
closed = 1;
nodes = (
(550,-16,l),
(550,24,l),
(485,24,l),
(303,279,l),
(173,460,l),
(230,460,l),
(230,500,l),
(10,500,l),
(10,460,l),
(75,460,l),
(253,211,l),
(387,24,l),
(330,24,l),
(330,-16,l)
);
},
{
closed = 1;
nodes = (
(209,-16,l),
(209,24,l),
(131,24,l),
(284,219,l),
(263,256,l),
(79,24,l),
(10,24,l),
(10,-16,l)
);
},
{
closed = 1;
nodes = (
(481,460,l),
(550,460,l),
(550,500,l),
(351,500,l),
(351,460,l),
(429,460,l),
(275,274,l),
(297,237,l)
);
}
);
};
layerId = m01;
shapes = (
{
closed = 1;
nodes = (
(403,2,o),
(477,2,o),
(550,0,c),
(550,41,l),
(485,41,l),
(301,284,l),
(173,461,l),
(230,461,l),
(230,500,l),
(157,502,o),
(83,502,o),
(10,500,c),
(10,461,l),
(75,461,l),
(255,222,l),
(387,41,l),
(330,41,l),
(330,0,l)
);
},
{
closed = 1;
nodes = (
(76,2,o),
(143,2,o),
(209,0,c),
(209,41,l),
(131,41,l),
(284,228,l),
(263,262,l),
(79,41,l),
(10,41,l),
(10,0,l)
);
},
{
closed = 1;
nodes = (
(481,461,l),
(550,461,l),
(550,500,l),
(484,502,o),
(417,502,o),
(351,500,c),
(351,461,l),
(429,461,l),
(275,281,l),
(297,247,l)
);
}
);
width = 560;
}
);
unicode = 120;
},
{
glyphname = y;
lastChange = "2026-01-31 22:21:30 +0000";
layers = (
{
anchors = (
{
name = bottom;
pos = (260,0);
},
{
name = top;
pos = (260,500);
}
);
background = {
shapes = (
{
closed = 1;
nodes = (
(220,-58,o),
(137,-154,o),
(20,-114,c),
(20,-214,l),
(149,-214,o),
(240,-105,o),
(240,50,c),
(220,50,l)
);
}
);
};
layerId = m01;
shapes = (
{
closed = 1;
nodes = (
(453,460,l),
(530,460,l),
(530,500,l),
(464,498,o),
(397,498,o),
(331,500,c),
(331,460,l),
(409,460,l),
(220,14,l),
(257,-1,l)
);
},
{
closed = 1;
nodes = (
(137,498,o),
(63,498,o),
(-10,500,c),
(-10,460,l),
(60,460,l),
(250,-6,l),
(289,109,l),
(146,460,l),
(210,460,l),
(210,500,l)
);
},
{
closed = 1;
nodes = (
(20,-214,l),
(149,-214,o),
(209,-114,o),
(257,-1,c),
(220,14,l),
(187,-63,o),
(137,-154,o),
(20,-134,c)
);
}
);
width = 520;
}
);
unicode = 121;
},
{
glyphname = z;
lastChange = "2026-01-31 22:21:30 +0000";
layers = (
{
anchors = (
{
name = bottom;
pos = (264,0);
},
{
name = center;
pos = (264,250);
},
{
name = top;
pos = (264,500);
}
);
layerId = m01;
shapes = (
{
closed = 1;
nodes = (
(484,0,l),
(482,59,o),
(482,119,o),
(484,178,c),
(444,178,l),
(434,40,l),
(84,40,l),
(124,19,l),
(484,467,l),
(484,504,l),
(64,504,l),
(66,444,o),
(66,384,o),
(64,324,c),
(104,324,l),
(114,464,l),
(431,464,l),
(393,481,l),
(44,47,l),
(44,0,l)
);
}
);
width = 528;
}
);
unicode = 122;
},
{
glyphname = zero;
lastChange = "2026-01-31 22:03:32 +0000";
layers = (
{
layerId = m01;
shapes = (
{
closed = 1;
nodes = (
(435,-13,o),
(536,138,o),
(536,351,cs),
(536,565,o),
(435,716,o),
(293,716,cs),
(151,716,o),
(50,565,o),
(50,351,cs),
(50,138,o),
(151,-13,o),
(293,-13,cs)
);
},
{
closed = 1;
nodes = (
(205,29,o),
(142,162,o),
(142,351,cs),
(142,540,o),
(205,674,o),
(293,674,cs),
(382,674,o),
(445,540,o),
(445,351,cs),
(445,162,o),
(382,29,o),
(293,29,cs)
);
}
);
width = 586;
}
);
unicode = 48;
},
{
glyphname = one;
lastChange = "2026-01-31 22:03:32 +0000";
layers = (
{
layerId = m01;
shapes = (
{
closed = 1;
nodes = (
(429,0,l),
(429,40,l),
(292,40,l),
(292,702,l),
(230,702,l),
(50,530,l),
(77,500,l),
(210,627,l),
(210,40,l),
(70,40,l),
(70,0,l)
);
}
);
width = 479;
}
);
unicode = 49;
},
{
glyphname = two;
lastChange = "2026-01-31 22:03:32 +0000";
layers = (
{
layerId = m01;
shapes = (
{
closed = 1;
nodes = (
(300,181,o),
(445,377,o),
(445,523,cs),
(445,635,o),
(359,715,o),
(240,715,cs),
(161,715,o),
(84,679,o),
(50,627,c),
(105,587,l),
(126,637,o),
(176,673,o),
(228,673,cs),
(299,673,o),
(351,605,o),
(351,506,cs),
(351,359,o),
(236,181,o),
(74,78,c),
(94,50,l)
);
},
{
closed = 1;
nodes = (
(74,-2,l),
(476,-2,l),
(476,78,l),
(74,78,l)
);
}
);
width = 526;
}
);
unicode = 50;
},
{
glyphname = three;
lastChange = "2026-01-31 22:03:32 +0000";
layers = (
{
layerId = m01;
shapes = (
{
closed = 1;
nodes = (
(354,353,o),
(465,422,o),
(465,533,cs),
(465,635,o),
(373,715,o),
(254,715,cs),
(175,715,o),
(104,679,o),
(70,627,c),
(125,587,l),
(146,637,o),
(195,673,o),
(248,673,cs),
(318,673,o),
(371,610,o),
(371,533,cs),
(371,444,o),
(299,390,o),
(197,390,c),
(197,352,l)
);
},
{
closed = 1;
nodes = (
(384,-16,o),
(485,77,o),
(485,191,cs),
(485,315,o),
(365,389,o),
(195,390,c),
(195,352,l),
(310,352,o),
(391,292,o),
(391,190,cs),
(391,101,o),
(329,26,o),
(243,26,cs),
(183,26,o),
(126,62,o),
(105,112,c),
(50,72,l),
(84,20,o),
(163,-16,o),
(248,-16,cs)
);
}
);
width = 535;
}
);
unicode = 51;
},
{
glyphname = four;
lastChange = "2026-01-31 22:03:32 +0000";
layers = (
{
layerId = m01;
shapes = (
{
closed = 1;
nodes = (
(431,3,l),
(431,705,l),
(390,705,l),
(50,231,l),
(50,212,l),
(549,212,l),
(549,272,l),
(132,272,l),
(349,586,l),
(349,3,l)
);
}
);
width = 599;
}
);
unicode = 52;
},
{
glyphname = five;
lastChange = "2026-01-31 22:03:32 +0000";
layers = (
{
layerId = m01;
shapes = (
{
closed = 1;
nodes = (
(144,616,l),
(391,616,l),
(391,740,l),
(351,740,l),
(351,700,l),
(111,700,l),
(84,345,l),
(124,344,l)
);
},
{
closed = 1;
nodes = (
(151,435,o),
(84,400,o),
(84,351,c),
(124,344,l),
(124,375,o),
(170,397,o),
(226,397,cs),
(324,397,o),
(368,319,o),
(368,211,cs),
(368,102,o),
(303,26,o),
(215,26,cs),
(166,26,o),
(121,53,o),
(105,92,c),
(50,52,l),
(76,12,o),
(144,-16,o),
(218,-16,cs),
(358,-16,o),
(459,86,o),
(459,219,cs),
(459,349,o),
(382,434,o),
(242,435,cs)
);
}
);
width = 509;
}
);
unicode = 53;
},
{
glyphname = six;
lastChange = "2026-02-01 15:35:03 +0000";
layers = (
{
background = {
shapes = (
{
closed = 1;
nodes = (
(414,-16,o),
(490,102,o),
(490,235,cs),
(490,354,o),
(417,438,o),
(313,438,cs),
(224,438,o),
(132,389,o),
(132,320,c),
(163,320,l),
(163,366,o),
(233,398,o),
(290,398,cs),
(359,398,o),
(408,327,o),
(408,227,cs),
(408,122,o),
(366,22,o),
(302,22,cs),
(222,22,o),
(162,127,o),
(162,319,cs),
(162,508,o),
(200,673,o),
(296,673,cs),
(338,673,o),
(388,646,o),
(404,607,c),
(459,647,l),
(433,687,o),
(358,715,o),
(295,715,cs),
(145,715,o),
(70,536,o),
(70,324,cs),
(70,109,o),
(168,-15,o),
(303,-16,cs)
);
}
);
};
layerId = m01;
shapes = (
{
closed = 1;
nodes = (
(393,-16,o),
(480,80,o),
(480,215,cs),
(480,346,o),
(397,438,o),
(276,438,cs),
(167,438,o),
(82,389,o),
(82,320,c),
(113,320,l),
(113,366,o),
(176,398,o),
(252,398,cs),
(339,398,o),
(398,319,o),
(398,206,cs),
(398,99,o),
(344,22,o),
(274,22,cs),
(200,22,o),
(112,109,o),
(112,301,cs),
(112,519,o),
(192,673,o),
(304,673,cs),
(334,673,o),
(378,662,o),
(384,647,c),
(439,687,l),
(428,703,o),
(365,715,o),
(319,715,cs),
(149,715,o),
(30,552,o),
(30,322,cs),
(30,107,o),
(152,-15,o),
(274,-16,cs)
);
}
);
width = 530;
}
);
unicode = 54;
},
{
glyphname = seven;
lastChange = "2026-01-31 22:03:32 +0000";
layers = (
{
layerId = m01;
shapes = (
{
closed = 1;
nodes = (
(50,704,l),
(450,704,l),
(450,664,l),
(190,-16,l),
(133,0,l),
(412,676,l),
(431,622,l),
(90,622,l),
(90,544,l),
(50,544,l)
);
}
);
width = 500;
}
);
unicode = 55;
},
{
glyphname = eight;
lastChange = "2026-01-31 22:03:32 +0000";
layers = (
{
layerId = m01;
shapes = (
{
closed = 1;
nodes = (
(379,-14,o),
(461,68,o),
(460,176,cs),
(458,373,o),
(139,402,o),
(139,570,cs),
(139,635,o),
(188,676,o),
(257,676,cs),
(328,676,o),
(378,627,o),
(378,557,cs),
(378,385,o),
(50,401,o),
(50,178,cs),
(50,66,o),
(138,-14,o),
(255,-14,c),
(255,26,l),
(167,26,o),
(100,88,o),
(100,176,cs),
(100,367,o),
(428,349,o),
(428,554,cs),
(428,649,o),
(357,716,o),
(257,716,cs),
(153,716,o),
(79,639,o),
(79,538,cs),
(79,330,o),
(399,284,o),
(399,137,cs),
(399,69,o),
(342,26,o),
(255,26,c),
(255,-14,l)
);
}
);
width = 510;
}
);
unicode = 56;
},
{
glyphname = nine;
lastChange = "2026-02-01 15:35:07 +0000";
layers = (
{
background = {
shapes = (
{
closed = 1;
nodes = (
(164,715,o),
(88,617,o),
(88,484,cs),
(88,351,o),
(164,261,o),
(285,261,cs),
(374,261,o),
(446,310,o),
(446,379,c),
(415,379,l),
(415,333,o),
(365,301,o),
(308,301,cs),
(221,301,o),
(170,377,o),
(170,492,cs),
(170,597,o),
(212,677,o),
(276,677,cs),
(356,677,o),
(416,552,o),
(416,360,cs),
(416,171,o),
(358,26,o),
(262,26,cs),
(220,26,o),
(170,53,o),
(154,92,c),
(99,52,l),
(125,12,o),
(200,-16,o),
(263,-16,cs),
(413,-16,o),
(508,143,o),
(508,355,cs),
(508,570,o),
(410,714,o),
(275,715,cs)
);
}
);
};
layerId = m01;
shapes = (
{
closed = 1;
nodes = (
(137,715,o),
(50,619,o),
(50,484,cs),
(50,353,o),
(133,261,o),
(254,261,cs),
(343,261,o),
(448,310,o),
(448,379,c),
(417,379,l),
(417,333,o),
(334,301,o),
(278,301,cs),
(191,301,o),
(132,380,o),
(132,493,cs),
(132,600,o),
(186,677,o),
(256,677,cs),
(330,677,o),
(418,590,o),
(418,398,cs),
(418,180,o),
(358,26,o),
(237,26,cs),
(205,26,o),
(152,37,o),
(146,52,c),
(91,12,l),
(102,-4,o),
(172,-16,o),
(220,-16,cs),
(401,-16,o),
(500,155,o),
(500,397,cs),
(500,612,o),
(378,714,o),
(256,715,cs)
);
}
);
width = 530;
}
);
unicode = 57;
},
{
glyphname = period;
lastChange = "2026-01-31 19:38:27 +0000";
layers = (
{
layerId = m01;
shapes = (
{
closed = 1;
nodes = (
(182,11,o),
(207,36,o),
(234,59,c),
(207,82,o),
(182,107,o),
(159,134,c),
(136,107,o),
(111,82,o),
(84,59,c),
(111,36,o),
(136,11,o),
(159,-16,c)
);
}
);
width = 318;
}
);
unicode = 46;
},
{
glyphname = comma;
lastChange = "2026-01-31 19:40:08 +0000";
layers = (
{
layerId = m01;
shapes = (
{
closed = 1;
nodes = (
(182,11,o),
(207,36,o),
(234,59,c),
(207,82,o),
(182,107,o),
(159,134,c),
(136,107,o),
(111,82,o),
(84,59,c),
(111,36,o),
(136,11,o),
(159,-16,c)
);
},
{
closed = 1;
nodes = (
(234,59,l),
(198,80,l),
(64,-117,l),
(90,-147,l)
);
}
);
width = 318;
}
);
unicode = 44;
},
{
glyphname = colon;
lastChange = "2026-01-31 22:07:04 +0000";
layers = (
{
layerId = m01;
shapes = (
{
closed = 1;
nodes = (
(182,11,o),
(207,36,o),
(234,59,c),
(207,82,o),
(182,107,o),
(159,134,c),
(136,107,o),
(111,82,o),
(84,59,c),
(111,36,o),
(136,11,o),
(159,-16,c)
);
},
{
closed = 1;
nodes = (
(182,311,o),
(207,336,o),
(234,359,c),
(207,382,o),
(182,407,o),
(159,434,c),
(136,407,o),
(111,382,o),
(84,359,c),
(111,336,o),
(136,311,o),
(159,284,c)
);
}
);
width = 318;
}
);
unicode = 58;
},
{
glyphname = semicolon;
lastChange = "2026-01-31 22:07:33 +0000";
layers = (
{
layerId = m01;
shapes = (
{
closed = 1;
nodes = (
(182,11,o),
(207,36,o),
(234,59,c),
(207,82,o),
(182,107,o),
(159,134,c),
(136,107,o),
(111,82,o),
(84,59,c),
(111,36,o),
(136,11,o),
(159,-16,c)
);
},
{
closed = 1;
nodes = (
(234,59,l),
(198,80,l),
(64,-117,l),
(90,-147,l)
);
},
{
closed = 1;
nodes = (
(182,311,o),
(207,336,o),
(234,359,c),
(207,382,o),
(182,407,o),
(159,434,c),
(136,407,o),
(111,382,o),
(84,359,c),
(111,336,o),
(136,311,o),
(159,284,c)
);
}
);
width = 318;
}
);
unicode = 59;
},
{
glyphname = exclam;
lastChange = "2026-02-01 08:49:17 +0000";
layers = (
{
layerId = m01;
shapes = (
{
closed = 1;
nodes = (
(182,11,o),
(207,36,o),
(234,59,c),
(207,82,o),
(182,107,o),
(159,134,c),
(136,107,o),
(111,82,o),
(84,59,c),
(111,36,o),
(136,11,o),
(159,-16,c)
);
},
{
closed = 1;
nodes = (
(187,242,o),
(200,598,o),
(228,698,c),
(214,733,l),
(110,696,l),
(125,632,o),
(139,275,o),
(144,215,c),
(172,206,l)
);
}
);
width = 318;
}
);
unicode = 33;
},
{
glyphname = exclamdown;
lastChange = "2026-02-01 08:49:34 +0000";
layers = (
{
layerId = m01;
shapes = (
{
closed = 1;
nodes = (
(136,706,o),
(111,681,o),
(84,658,c),
(111,635,o),
(136,610,o),
(159,583,c),
(182,610,o),
(207,635,o),
(234,658,c),
(207,681,o),
(182,706,o),
(159,733,c)
);
},
{
closed = 1;
nodes = (
(131,475,o),
(118,119,o),
(90,19,c),
(104,-16,l),
(208,21,l),
(193,85,o),
(179,442,o),
(174,502,c),
(146,511,l)
);
}
);
width = 318;
}
);
unicode = 161;
},
{
glyphname = question;
lastChange = "2026-02-01 09:00:31 +0000";
layers = (
{
layerId = m01;
shapes = (
{
closed = 1;
nodes = (
(220,359,o),
(445,377,o),
(445,523,cs),
(445,635,o),
(359,715,o),
(240,715,cs),
(161,715,o),
(84,679,o),
(50,627,c),
(105,587,l),
(126,637,o),
(176,673,o),
(228,673,cs),
(299,673,o),
(351,605,o),
(351,506,cs),
(351,359,o),
(156,367,o),
(215,225,c),
(263,196,l)
);
},
{
closed = 1;
nodes = (
(263,11,o),
(288,36,o),
(315,59,c),
(288,82,o),
(263,107,o),
(240,134,c),
(217,107,o),
(192,82,o),
(165,59,c),
(192,36,o),
(217,11,o),
(240,-16,c)
);
}
);
width = 508;
}
);
unicode = 63;
},
{
glyphname = periodcentered;
lastChange = "2026-02-01 08:54:29 +0000";
layers = (
{
layerId = m01;
shapes = (
{
closed = 1;
nodes = (
(285,210,o),
(319,244,o),
(356,275,c),
(319,306,o),
(285,340,o),
(254,377,c),
(223,340,o),
(189,306,o),
(152,275,c),
(189,244,o),
(223,210,o),
(254,173,c)
);
}
);
width = 508;
}
);
unicode = 183;
},
{
glyphname = bullet;
lastChange = "2026-02-01 08:54:18 +0000";
layers = (
{
layerId = m01;
shapes = (
{
closed = 1;
nodes = (
(306,166,o),
(363,223,o),
(424,275,c),
(363,327,o),
(306,384,o),
(254,445,c),
(202,384,o),
(145,327,o),
(84,275,c),
(145,223,o),
(202,166,o),
(254,105,c)
);
}
);
width = 508;
}
);
unicode = 8226;
},
{
glyphname = asterisk;
lastChange = "2026-02-01 08:58:15 +0000";
layers = (
{
background = {
shapes = (
{
closed = 1;
nodes = (
(253,511,l),
(287,499,l),
(255,603,o),
(255,612,o),
(287,716,c),
(254,704,l),
(221,716,l),
(253,612,o),
(253,603,o),
(221,499,c),
(255,511,l)
);
},
{
closed = 1;
nodes = (
(170,560,l),
(176,525,l),
(251,604,o),
(258,609,o),
(364,634,c),
(338,656,l),
(332,690,l),
(257,611,o),
(250,606,o),
(144,581,c),
(171,559,l)
);
},
{
closed = 1;
nodes = (
(337,559,l),
(364,581,l),
(258,606,o),
(251,611,o),
(176,690,c),
(170,656,l),
(144,634,l),
(250,609,o),
(257,604,o),
(332,525,c),
(338,560,l)
);
}
);
};
layerId = m01;
shapes = (
{
closed = 1;
nodes = (
(253,456,l),
(299,440,l),
(255,581,o),
(255,594,o),
(299,735,c),
(254,719,l),
(209,735,l),
(253,594,o),
(253,581,o),
(209,440,c),
(255,456,l)
);
},
{
closed = 1;
nodes = (
(140,523,l),
(148,475,l),
(250,583,o),
(259,590,o),
(404,624,c),
(368,653,l),
(360,700,l),
(258,592,o),
(249,585,o),
(104,551,c),
(141,522,l)
);
},
{
closed = 1;
nodes = (
(367,522,l),
(404,551,l),
(259,585,o),
(250,592,o),
(148,700,c),
(140,653,l),
(104,624,l),
(249,590,o),
(258,583,o),
(360,475,c),
(368,523,l)
);
}
);
width = 508;
}
);
unicode = 42;
},
{
glyphname = numbersign;
lastChange = "2026-02-01 08:59:03 +0000";
layers = (
{
layerId = m01;
shapes = (
{
closed = 1;
nodes = (
(64,460,l),
(575,460,l),
(582,500,l),
(71,500,l)
);
},
{
closed = 1;
nodes = (
(18,210,l),
(529,210,l),
(536,250,l),
(25,250,l)
);
},
{
closed = 1;
nodes = (
(88,0,l),
(168,0,l),
(296,700,l),
(216,700,l)
);
},
{
closed = 1;
nodes = (
(288,0,l),
(368,0,l),
(496,700,l),
(416,700,l)
);
}
);
width = 600;
}
);
unicode = 35;
},
{
glyphname = slash;
lastChange = "2026-02-01 08:59:46 +0000";
layers = (
{
layerId = m01;
shapes = (
{
closed = 1;
nodes = (
(30,-200,l),
(96,-200,l),
(356,700,l),
(280,700,l)
);
}
);
width = 386;
}
);
unicode = 47;
},
{
glyphname = backslash;
lastChange = "2026-02-01 08:59:52 +0000";
layers = (
{
layerId = m01;
shapes = (
{
closed = 1;
nodes = (
(300,-200,l),
(366,-200,l),
(106,700,l),
(30,700,l)
);
}
);
width = 396;
}
);
unicode = 92;
},
{
glyphname = hyphen;
lastChange = "2026-02-01 09:23:08 +0000";
layers = (
{
layerId = m01;
shapes = (
{
closed = 1;
nodes = (
(40,303,l),
(320,303,l),
(320,363,l),
(40,363,l)
);
}
);
width = 360;
}
);
unicode = 45;
},
{
glyphname = endash;
lastChange = "2026-02-01 08:13:19 +0000";
layers = (
{
layerId = m01;
shapes = (
{
closed = 1;
nodes = (
(40,303,l),
(560,303,l),
(560,343,l),
(40,343,l)
);
}
);
width = 600;
}
);
unicode = 8211;
},
{
glyphname = emdash;
lastChange = "2026-02-01 08:13:32 +0000";
layers = (
{
layerId = m01;
shapes = (
{
closed = 1;
nodes = (
(0,303,l),
(600,303,l),
(600,343,l),
(0,343,l)
);
}
);
width = 600;
}
);
unicode = 8212;
},
{
glyphname = underscore;
lastChange = "2026-02-01 08:13:50 +0000";
layers = (
{
layerId = m01;
shapes = (
{
closed = 1;
nodes = (
(0,-140,l),
(600,-140,l),
(600,-100,l),
(0,-100,l)
);
}
);
width = 600;
}
);
unicode = 95;
},
{
glyphname = parenleft;
lastChange = "2026-02-01 08:29:52 +0000";
layers = (
{
layerId = m01;
shapes = (
{
closed = 1;
nodes = (
(115,436,o),
(115,279,cs),
(115,122,o),
(186,-35,o),
(294,-165,c),
(320,-149,l),
(251,-23,o),
(200,128,o),
(200,279,cs),
(200,430,o),
(251,582,o),
(320,707,c),
(294,723,l),
(186,593,o)
);
}
);
width = 420;
}
);
unicode = 40;
},
{
glyphname = parenright;
lastChange = "2026-02-01 08:29:40 +0000";
layers = (
{
layerId = m01;
shapes = (
{
closed = 1;
nodes = (
(305,429,o),
(226,601,o),
(126,723,c),
(100,707,l),
(164,592,o),
(220,427,o),
(220,279,cs),
(220,132,o),
(164,-33,o),
(100,-149,c),
(126,-165,l),
(226,-43,o),
(305,129,o),
(305,279,cs)
);
}
);
width = 420;
}
);
unicode = 41;
},
{
glyphname = braceleft;
lastChange = "2026-02-01 08:30:43 +0000";
layers = (
{
layerId = m01;
shapes = (
{
closed = 1;
nodes = (
(320,-103,l),
(254,-103,o),
(205,-69,o),
(205,-15,c),
(205,182,l),
(205,237,o),
(134,282,o),
(20,299,c),
(20,259,l),
(83,247,o),
(129,210,o),
(129,162,c),
(129,-35,l),
(129,-101,o),
(203,-143,o),
(320,-143,c)
);
},
{
closed = 1;
nodes = (
(203,701,o),
(129,659,o),
(129,593,c),
(129,396,l),
(129,348,o),
(83,311,o),
(20,299,c),
(20,259,l),
(134,276,o),
(205,321,o),
(205,376,c),
(205,573,l),
(205,627,o),
(254,661,o),
(320,661,c),
(320,701,l)
);
}
);
width = 420;
}
);
unicode = 123;
},
{
glyphname = braceright;
lastChange = "2026-02-01 08:30:51 +0000";
layers = (
{
layerId = m01;
shapes = (
{
closed = 1;
nodes = (
(217,-143,o),
(291,-101,o),
(291,-35,cs),
(291,162,ls),
(291,210,o),
(337,247,o),
(400,259,c),
(400,299,l),
(286,282,o),
(215,237,o),
(215,182,cs),
(215,-15,ls),
(215,-69,o),
(166,-103,o),
(100,-103,c),
(100,-143,l)
);
},
{
closed = 1;
nodes = (
(400,299,l),
(337,311,o),
(291,348,o),
(291,396,cs),
(291,593,ls),
(291,659,o),
(217,701,o),
(100,701,c),
(100,661,l),
(166,661,o),
(215,627,o),
(215,573,cs),
(215,376,ls),
(215,321,o),
(286,276,o),
(400,259,c)
);
}
);
width = 420;
}
);
unicode = 125;
},
{
glyphname = bracketleft;
lastChange = "2026-02-01 08:30:16 +0000";
layers = (
{
layerId = m01;
shapes = (
{
closed = 1;
nodes = (
(192,-144,o),
(265,-144,o),
(320,-147,c),
(320,-107,l),
(202,-107,l),
(198,149,o),
(198,404,o),
(202,660,c),
(320,660,l),
(320,700,l),
(265,697,o),
(192,697,o),
(120,700,c),
(124,418,o),
(124,135,o),
(120,-147,c)
);
}
);
width = 420;
}
);
unicode = 91;
},
{
glyphname = bracketright;
lastChange = "2026-02-01 08:30:23 +0000";
layers = (
{
layerId = m01;
shapes = (
{
closed = 1;
nodes = (
(296,135,o),
(296,418,o),
(300,700,c),
(228,697,o),
(155,697,o),
(100,700,c),
(100,660,l),
(218,660,l),
(222,404,o),
(222,149,o),
(218,-107,c),
(100,-107,l),
(100,-147,l),
(155,-144,o),
(228,-144,o),
(300,-147,c)
);
}
);
width = 420;
}
);
unicode = 93;
},
{
glyphname = quotesinglbase;
lastChange = "2026-02-01 08:32:10 +0000";
layers = (
{
layerId = m01;
shapes = (
{
closed = 1;
nodes = (
(182,11,o),
(207,36,o),
(234,59,c),
(207,82,o),
(182,107,o),
(159,134,c),
(136,107,o),
(111,82,o),
(84,59,c),
(111,36,o),
(136,11,o),
(159,-16,c)
);
},
{
closed = 1;
nodes = (
(234,59,l),
(198,80,l),
(64,-117,l),
(90,-147,l)
);
}
);
width = 318;
}
);
unicode = 8218;
},
{
glyphname = guilsinglright;
lastChange = "2026-02-01 08:37:15 +0000";
layers = (
{
layerId = m01;
shapes = (
{
closed = 1;
nodes = (
(353,219,o),
(384,250,o),
(408,270,c),
(302,361,o),
(213,441,o),
(195,465,c),
(175,441,o),
(144,410,o),
(120,390,c),
(220,305,o),
(308,224,o),
(333,195,c)
);
},
{
closed = 1;
nodes = (
(408,270,l),
(372,291,l),
(140,34,l),
(166,4,l)
);
}
);
width = 508;
}
);
unicode = 8250;
},
{
glyphname = quotesingle;
lastChange = "2026-02-01 08:45:38 +0000";
layers = (
{
background = {
shapes = (
{
closed = 1;
nodes = (
(182,631,o),
(207,656,o),
(234,679,c),
(207,702,o),
(182,727,o),
(159,754,c),
(136,727,o),
(111,702,o),
(84,679,c),
(111,656,o),
(136,631,o),
(159,604,c)
);
},
{
closed = 1;
nodes = (
(180,509,l),
(144,530,l),
(110,483,l),
(136,453,l)
);
}
);
};
layerId = m01;
shapes = (
{
closed = 1;
nodes = (
(177,522,o),
(190,598,o),
(218,698,c),
(204,733,l),
(100,696,l),
(115,632,o),
(129,555,o),
(134,495,c),
(162,486,l)
);
}
);
width = 318;
}
);
unicode = 39;
},
{
glyphname = at;
lastChange = "2026-02-01 10:52:10 +0000";
layers = (
{
layerId = m01;
shapes = (
{
closed = 1;
nodes = (
(760,-164,l),
(758,-164,o),
(487,-164,o),
(485,-164,cs),
(247,-164,o),
(126,1,o),
(146,254,cs),
(168,535,o),
(350,679,o),
(550,679,cs),
(734,679,o),
(862,528,o),
(843,294,cs),
(831,137,o),
(770,31,o),
(736,31,cs),
(704,31,o),
(700,129,o),
(706,220,c),
(727,499,l),
(723,516,l),
(648,500,l),
(648,449,l),
(606,496,o),
(549,516,o),
(509,516,cs),
(388,516,o),
(281,434,o),
(268,261,cs),
(255,91,o),
(342,-13,o),
(461,-13,cs),
(512,-13,o),
(585,25,o),
(638,111,c),
(657,45,o),
(672,-16,o),
(732,-16,cs),
(796,-16,o),
(909,104,o),
(924,299,cs),
(944,550,o),
(787,715,o),
(557,715,cs),
(314,715,o),
(90,559,o),
(66,253,cs),
(45,-22,o),
(195,-200,o),
(478,-200,cs),
(482,-200,o),
(756,-200,o),
(760,-200,c)
);
},
{
closed = 1;
nodes = (
(360,410,o),
(425,479,o),
(506,479,cs),
(566,479,o),
(641,410,o),
(628,245,cs),
(623,185,o),
(551,27,o),
(462,27,cs),
(384,27,o),
(336,113,o),
(348,259,cs)
);
}
);
width = 986;
}
);
unicode = 64;
},
{
glyphname = ampersand;
lastChange = "2026-02-01 15:33:53 +0000";
layers = (
{
background = {
shapes = (
{
closed = 1;
nodes = (
(392,336,l),
(297,411,o),
(164,462,o),
(164,570,cs),
(164,635,o),
(213,676,o),
(282,676,cs),
(353,676,o),
(403,627,o),
(403,557,cs),
(403,385,o),
(75,401,o),
(75,178,cs),
(75,66,o),
(163,-14,o),
(280,-14,c),
(280,26,l),
(192,26,o),
(125,88,o),
(125,176,cs),
(125,367,o),
(453,349,o),
(453,554,cs),
(453,649,o),
(382,716,o),
(282,716,cs),
(178,716,o),
(104,639,o),
(104,538,cs),
(104,402,o),
(240,336,o),
(335,265,c)
);
}
);
};
layerId = m01;
shapes = (
{
closed = 1;
nodes = (
(350,66,l),
(232,66,o),
(165,128,o),
(165,215,cs),
(165,258,o),
(198,307,o),
(244,334,c),
(727,-13,l),
(775,54,l),
(324,379,l),
(390,418,o),
(453,468,o),
(453,554,cs),
(453,649,o),
(382,716,o),
(284,716,cs),
(178,716,o),
(104,639,o),
(104,539,cs),
(104,463,o),
(150,410,o),
(203,365,c),
(136,324,o),
(75,271,o),
(75,180,cs),
(75,55,o),
(159,-14,o),
(310,-14,c)
);
},
{
closed = 1;
nodes = (
(164,615,o),
(200,646,o),
(250,646,cs),
(322,646,o),
(373,598,o),
(373,529,cs),
(373,490,o),
(335,440,o),
(281,410,c),
(216,454,o),
(164,501,o),
(164,570,cs)
);
},
{
closed = 1;
nodes = (
(620,222,o),
(519,66,o),
(350,66,c),
(310,-14,l),
(503,-14,o),
(660,199,o),
(660,500,c),
(620,500,l)
);
},
{
closed = 1;
nodes = (
(780,460,l),
(780,500,l),
(500,500,l),
(500,460,l)
);
}
);
width = 815;
}
);
unicode = 38;
},
{
glyphname = paragraph;
lastChange = "2026-02-01 10:47:03 +0000";
layers = (
{
layerId = m01;
shapes = (
{
closed = 1;
nodes = (
(399,-200,l),
(481,-200,l),
(481,700,l),
(399,700,l)
);
},
{
closed = 1;
nodes = (
(280,-200,l),
(320,-200,l),
(320,700,l),
(280,700,l)
);
},
{
closed = 1;
nodes = (
(320,700,l),
(307,709,o),
(274,715,o),
(239,715,cs),
(135,715,o),
(62,642,o),
(62,538,cs),
(62,434,o),
(135,361,o),
(239,361,cs),
(250,361,o),
(267,363,o),
(280,366,c)
);
},
{
closed = 1;
nodes = (
(481,660,l),
(581,660,l),
(581,700,l),
(481,700,l)
);
}
);
width = 600;
}
);
unicode = 182;
},
{
glyphname = section;
lastChange = "2026-02-01 10:54:59 +0000";
layers = (
{
background = {
shapes = (
{
closed = 1;
nodes = (
(344,-134,o),
(414,-74,o),
(414,11,cs),
(414,186,o),
(144,161,o),
(144,282,cs),
(144,329,o),
(185,358,o),
(250,358,cs),
(311,358,o),
(354,319,o),
(354,263,cs),
(354,220,l),
(354,331,l),
(375,328,l),
(349,369,o),
(291,398,o),
(236,398,cs),
(142,398,o),
(75,339,o),
(75,255,cs),
(75,87,o),
(345,113,o),
(345,-16,cs),
(345,-64,o),
(301,-94,o),
(231,-94,cs),
(166,-94,o),
(114,-48,o),
(114,10,cs),
(114,42,l),
(74,42,l),
(76,-5,o),
(76,-71,o),
(74,-118,c),
(114,-118,l),
(114,-58,l),
(96,-58,l),
(123,-107,o),
(176,-134,o),
(245,-134,cs)
);
},
{
closed = 1;
nodes = (
(344,114,o),
(414,174,o),
(414,259,cs),
(414,434,o),
(144,409,o),
(144,530,cs),
(144,577,o),
(185,606,o),
(250,606,cs),
(311,606,o),
(354,567,o),
(354,511,cs),
(354,468,l),
(394,468,l),
(392,515,o),
(392,583,o),
(394,630,c),
(354,630,l),
(354,579,l),
(375,576,l),
(349,617,o),
(291,646,o),
(236,646,cs),
(142,646,o),
(75,587,o),
(75,503,cs),
(75,335,o),
(345,361,o),
(345,232,cs),
(345,184,o),
(301,154,o),
(231,154,cs),
(166,154,o),
(114,200,o),
(114,258,cs),
(114,290,l),
(114,190,l),
(96,190,l),
(123,141,o),
(176,114,o),
(245,114,cs)
);
}
);
};
layerId = m01;
shapes = (
{
closed = 1;
nodes = (
(344,-134,o),
(414,-74,o),
(414,4,cs),
(414,56,o),
(383,108,o),
(339,136,c),
(395,166,o),
(434,217,o),
(434,274,cs),
(434,434,o),
(124,409,o),
(124,527,cs),
(124,575,o),
(176,606,o),
(240,606,cs),
(311,606,o),
(354,567,o),
(354,511,cs),
(354,468,l),
(394,468,l),
(392,515,o),
(392,583,o),
(394,630,c),
(354,630,l),
(354,601,l),
(325,627,o),
(276,646,o),
(227,646,cs),
(142,646,o),
(75,587,o),
(75,512,cs),
(75,459,o),
(108,409,o),
(155,381,c),
(96,353,o),
(55,301,o),
(55,244,cs),
(55,87,o),
(365,113,o),
(365,-10,cs),
(365,-62,o),
(309,-94,o),
(241,-94,cs),
(162,-94,o),
(114,-51,o),
(114,10,cs),
(114,42,l),
(74,42,l),
(76,-5,o),
(76,-71,o),
(74,-118,c),
(114,-118,l),
(114,-83,l),
(141,-113,o),
(195,-134,o),
(250,-134,cs)
);
},
{
closed = 1;
nodes = (
(134,309,o),
(171,344,o),
(209,353,c),
(289,317,o),
(355,307,o),
(355,249,cs),
(355,211,o),
(321,173,o),
(288,162,c),
(204,202,o),
(134,211,o),
(134,270,cs)
);
}
);
width = 488;
}
);
unicode = 167;
},
{
glyphname = copyright;
lastChange = "2026-02-01 10:48:06 +0000";
layers = (
{
layerId = m01;
shapes = (
{
closed = 1;
nodes = (
(724,-140,o),
(900,36,o),
(900,288,cs),
(900,539,o),
(724,716,o),
(472,716,cs),
(221,716,o),
(44,539,o),
(44,288,cs),
(44,36,o),
(221,-140,o),
(472,-140,cs)
);
},
{
closed = 1;
nodes = (
(245,-100,o),
(84,61,o),
(84,288,cs),
(84,515,o),
(245,676,o),
(472,676,cs),
(699,676,o),
(860,515,o),
(860,288,cs),
(860,61,o),
(699,-100,o),
(472,-100,cs)
);
},
{
pos = (223,64);
ref = c;
scale = (0.8969,0.8969);
}
);
width = 944;
}
);
unicode = 169;
},
{
glyphname = registered;
lastChange = "2026-02-01 10:40:22 +0000";
layers = (
{
layerId = m01;
shapes = (
{
alignment = -1;
pos = (133,441);
ref = R;
scale = (0.294,0.294);
},
{
closed = 1;
nodes = (
(325,362,o),
(398,435,o),
(398,539,cs),
(398,643,o),
(325,716,o),
(221,716,cs),
(117,716,o),
(44,643,o),
(44,539,cs),
(44,435,o),
(117,362,o),
(221,362,cs)
);
},
{
closed = 1;
nodes = (
(132,387,o),
(69,450,o),
(69,539,cs),
(69,628,o),
(132,691,o),
(221,691,cs),
(310,691,o),
(373,628,o),
(373,539,cs),
(373,450,o),
(310,387,o),
(221,387,cs)
);
}
);
width = 442;
}
);
unicode = 174;
},
{
glyphname = degree;
lastChange = "2026-02-01 10:32:21 +0000";
layers = (
{
layerId = m01;
shapes = (
{
closed = 1;
nodes = (
(293,402,o),
(358,467,o),
(358,559,cs),
(358,651,o),
(293,716,o),
(201,716,cs),
(109,716,o),
(44,651,o),
(44,559,cs),
(44,467,o),
(109,402,o),
(201,402,cs)
);
},
{
closed = 1;
nodes = (
(141,457,o),
(99,499,o),
(99,559,cs),
(99,619,o),
(141,661,o),
(201,661,cs),
(261,661,o),
(303,619,o),
(303,559,cs),
(303,499,o),
(261,457,o),
(201,457,cs)
);
}
);
width = 402;
}
);
unicode = 176;
},
{
glyphname = bar;
lastChange = "2026-02-01 10:33:19 +0000";
layers = (
{
layerId = m01;
shapes = (
{
closed = 1;
nodes = (
(100,-200,l),
(140,-200,l),
(140,700,l),
(100,700,l)
);
}
);
width = 240;
}
);
unicode = 124;
},
{
glyphname = brokenbar;
lastChange = "2026-02-01 10:33:56 +0000";
layers = (
{
layerId = m01;
shapes = (
{
closed = 1;
nodes = (
(100,-200,l),
(160,-200,l),
(160,215,l),
(100,215,l)
);
},
{
closed = 1;
nodes = (
(100,285,l),
(160,285,l),
(160,700,l),
(100,700,l)
);
}
);
width = 260;
}
);
unicode = 166;
},
{
glyphname = dagger;
lastChange = "2026-02-01 10:37:39 +0000";
layers = (
{
layerId = m01;
shapes = (
{
closed = 1;
nodes = (
(278,-2,l),
(350,-27,l),
(281,344,o),
(281,564,o),
(350,735,c),
(280,710,l),
(209,735,l),
(278,564,o),
(278,344,o),
(209,-27,c),
(281,-2,l)
);
},
{
closed = 1;
nodes = (
(74,456,l),
(49,384,l),
(270,453,o),
(290,453,o),
(511,384,c),
(486,454,l),
(511,525,l),
(290,456,o),
(270,456,o),
(49,525,c),
(74,453,l)
);
}
);
width = 560;
}
);
unicode = 8224;
},
{
glyphname = daggerdbl;
lastChange = "2026-02-01 10:38:08 +0000";
layers = (
{
layerId = m01;
shapes = (
{
closed = 1;
nodes = (
(278,-2,l),
(350,-27,l),
(281,344,o),
(281,564,o),
(350,735,c),
(280,710,l),
(209,735,l),
(278,564,o),
(278,344,o),
(209,-27,c),
(281,-2,l)
);
},
{
closed = 1;
nodes = (
(74,236,l),
(49,164,l),
(270,233,o),
(290,233,o),
(511,164,c),
(486,234,l),
(511,305,l),
(290,236,o),
(270,236,o),
(49,305,c),
(74,233,l)
);
},
{
closed = 1;
nodes = (
(74,526,l),
(49,454,l),
(270,523,o),
(290,523,o),
(511,454,c),
(486,524,l),
(511,595,l),
(290,526,o),
(270,526,o),
(49,595,c),
(74,523,l)
);
}
);
width = 560;
}
);
unicode = 8225;
},
{
glyphname = ampersand.v2;
lastChange = "2026-02-01 15:33:46 +0000";
layers = (
{
background = {
shapes = (
{
closed = 1;
nodes = (
(458,-14,o),
(570,116,o),
(570,300,c),
(530,300,l),
(530,140,o),
(435,26,o),
(299,26,cs),
(198,26,o),
(125,88,o),
(125,176,cs),
(125,361,o),
(453,352,o),
(453,555,cs),
(453,649,o),
(382,716,o),
(283,716,cs),
(91,716,o),
(53,506,o),
(156,406,cs),
(591,-16,l),
(645,43,l),
(195,481,ls),
(136,539,o),
(151,676,o),
(281,676,cs),
(353,676,o),
(403,627,o),
(403,559,cs),
(403,384,o),
(75,396,o),
(75,181,cs),
(75,67,o),
(168,-14,o),
(296,-14,cs)
);
}
);
};
layerId = m01;
shapes = (
{
closed = 1;
nodes = (
(458,-14,o),
(570,116,o),
(570,300,c),
(530,300,l),
(530,140,o),
(475,56,o),
(339,56,cs),
(238,56,o),
(165,118,o),
(165,206,cs),
(165,391,o),
(453,352,o),
(453,555,cs),
(453,649,o),
(382,716,o),
(283,716,cs),
(160,716,o),
(99,629,o),
(99,541,cs),
(99,489,o),
(119,443,o),
(156,406,cs),
(591,-16,l),
(645,43,l),
(195,481,ls),
(172,504,o),
(161,532,o),
(161,564,cs),
(161,620,o),
(198,676,o),
(281,676,cs),
(353,676,o),
(403,627,o),
(403,559,cs),
(403,384,o),
(75,396,o),
(75,181,cs),
(75,67,o),
(168,-14,o),
(296,-14,cs)
);
}
);
width = 680;
}
);
},
{
glyphname = cent;
lastChange = "2026-02-01 11:06:45 +0000";
layers = (
{
layerId = m01;
shapes = (
{
closed = 1;
nodes = (
(308,-110,l),
(348,-110,l),
(348,600,l),
(308,600,l)
);
},
{
closed = 1;
nodes = (
(405,-13,o),
(485,28,o),
(524,86,c),
(467,118,l),
(445,68,o),
(388,32,o),
(330,32,cs),
(236,32,o),
(170,123,o),
(170,252,cs),
(170,387,o),
(232,483,o),
(320,483,cs),
(398,483,o),
(453,432,o),
(453,361,cs),
(453,318,l),
(493,318,l),
(492,371,o),
(492,447,o),
(493,500,c),
(453,500,l),
(453,471,l),
(424,499,o),
(369,518,o),
(320,518,cs),
(179,518,o),
(80,408,o),
(80,252,cs),
(80,97,o),
(184,-13,o),
(330,-13,cs)
);
}
);
width = 586;
}
);
unicode = 162;
},
{
glyphname = dollar;
lastChange = "2026-02-01 11:05:53 +0000";
layers = (
{
layerId = m01;
shapes = (
{
closed = 1;
nodes = (
(425,-16,o),
(514,66,o),
(514,181,cs),
(514,420,o),
(154,370,o),
(154,562,cs),
(154,623,o),
(201,674,o),
(292,674,cs),
(374,674,o),
(442,617,o),
(442,536,cs),
(442,477,l),
(494,477,l),
(491,542,o),
(491,635,o),
(494,700,c),
(442,700,l),
(442,630,l),
(471,626,l),
(437,679,o),
(361,716,o),
(287,716,cs),
(170,716,o),
(87,637,o),
(87,525,cs),
(87,292,o),
(447,344,o),
(447,145,cs),
(447,79,o),
(395,26,o),
(296,26,cs),
(201,26,o),
(124,88,o),
(124,176,cs),
(124,220,l),
(72,220,l),
(75,156,o),
(75,64,o),
(72,0,c),
(124,0,l),
(124,83,l),
(99,83,l),
(131,25,o),
(214,-16,o),
(300,-16,cs)
);
},
{
closed = 1;
nodes = (
(272,-110,l),
(312,-110,l),
(312,800,l),
(272,800,l)
);
}
);
width = 586;
}
);
unicode = 36;
},
{
glyphname = euro;
lastChange = "2026-02-01 11:02:03 +0000";
layers = (
{
layerId = m01;
shapes = (
{
closed = 1;
nodes = (
(434,-13,o),
(520,23,o),
(559,75,c),
(534,105,l),
(497,60,o),
(428,29,o),
(368,29,cs),
(244,29,o),
(158,163,o),
(158,355,cs),
(158,541,o),
(239,674,o),
(353,674,cs),
(428,674,o),
(480,617,o),
(480,536,cs),
(480,517,l),
(532,517,l),
(530,571,o),
(530,646,o),
(532,700,c),
(480,700,l),
(480,657,l),
(454,692,o),
(391,716,o),
(329,716,cs),
(173,716,o),
(64,567,o),
(64,358,cs),
(64,140,o),
(183,-13,o),
(352,-13,cs)
);
},
{
closed = 1;
nodes = (
(20,392,l),
(420,392,l),
(440,434,l),
(40,434,l)
);
},
{
closed = 1;
nodes = (
(20,312,l),
(420,312,l),
(440,354,l),
(40,354,l)
);
}
);
width = 586;
}
);
unicode = 8364;
},
{
glyphname = sterling;
lastChange = "2026-02-01 11:03:21 +0000";
layers = (
{
layerId = m01;
shapes = (
{
closed = 1;
nodes = (
(193,122,o),
(217,204,o),
(217,299,cs),
(217,367,o),
(205,441,o),
(205,498,cs),
(205,611,o),
(253,674,o),
(326,674,cs),
(395,674,o),
(448,617,o),
(448,536,cs),
(448,517,l),
(500,517,l),
(498,571,o),
(498,646,o),
(500,700,c),
(448,700,l),
(448,657,l),
(422,692,o),
(360,716,o),
(301,716,cs),
(188,716,o),
(111,629,o),
(111,493,cs),
(111,402,o),
(146,310,o),
(146,231,cs),
(146,172,o),
(127,121,o),
(60,78,c),
(80,50,l)
);
},
{
closed = 1;
nodes = (
(520,-2,l),
(520,78,l),
(60,78,l),
(60,-2,l)
);
},
{
closed = 1;
nodes = (
(400,330,l),
(400,390,l),
(60,390,l),
(60,330,l)
);
}
);
width = 586;
}
);
unicode = 163;
},
{
glyphname = dieresis;
lastChange = "2026-01-31 22:16:58 +0000";
layers = (
{
layerId = m01;
shapes = (
{
closed = 1;
nodes = (
(182,629,o),
(207,654,o),
(234,677,c),
(207,700,o),
(182,725,o),
(159,752,c),
(136,725,o),
(111,700,o),
(84,677,c),
(111,654,o),
(136,629,o),
(159,602,c)
);
},
{
closed = 1;
nodes = (
(382,629,o),
(407,654,o),
(434,677,c),
(407,700,o),
(382,725,o),
(359,752,c),
(336,725,o),
(311,700,o),
(284,677,c),
(311,654,o),
(336,629,o),
(359,602,c)
);
}
);
width = 300;
}
);
unicode = 168;
},
{
glyphname = dotaccent;
lastChange = "2026-01-31 22:24:46 +0000";
layers = (
{
layerId = m01;
shapes = (
{
closed = 1;
nodes = (
(182,629,o),
(207,654,o),
(234,677,c),
(207,700,o),
(182,725,o),
(159,752,c),
(136,725,o),
(111,700,o),
(84,677,c),
(111,654,o),
(136,629,o),
(159,602,c)
);
}
);
width = 300;
}
);
unicode = 729;
},
{
glyphname = grave;
lastChange = "2026-01-31 22:52:53 +0000";
layers = (
{
layerId = m01;
shapes = (
{
closed = 1;
nodes = (
(182,629,o),
(187,634,o),
(214,657,c),
(187,680,o),
(102,755,o),
(79,782,c),
(56,755,o),
(51,760,o),
(24,737,c),
(51,714,o),
(136,629,o),
(159,602,c)
);
}
);
width = 300;
}
);
unicode = 96;
},
{
glyphname = acute;
lastChange = "2026-01-31 22:52:41 +0000";
layers = (
{
layerId = m01;
shapes = (
{
closed = 1;
nodes = (
(182,629,o),
(267,714,o),
(294,737,c),
(267,760,o),
(262,755,o),
(239,782,c),
(216,755,o),
(131,680,o),
(104,657,c),
(131,634,o),
(136,629,o),
(159,602,c)
);
}
);
width = 300;
}
);
unicode = 180;
},
{
glyphname = hungarumlaut;
lastChange = "2026-01-31 22:32:19 +0000";
layers = (
{
layerId = m01;
shapes = (
{
closed = 1;
nodes = (
(53,629,o),
(138,714,o),
(165,737,c),
(138,760,o),
(133,765,o),
(110,792,c),
(87,765,o),
(2,680,o),
(-25,657,c),
(2,634,o),
(7,629,o),
(30,602,c)
);
},
{
closed = 1;
nodes = (
(213,629,o),
(298,714,o),
(325,737,c),
(298,760,o),
(293,765,o),
(270,792,c),
(247,765,o),
(162,680,o),
(135,657,c),
(162,634,o),
(167,629,o),
(190,602,c)
);
}
);
width = 300;
}
);
unicode = 733;
},
{
glyphname = circumflex;
lastChange = "2026-01-31 22:52:33 +0000";
layers = (
{
layerId = m01;
shapes = (
{
closed = 1;
nodes = (
(93,629,o),
(168,704,o),
(195,727,c),
(168,750,o),
(173,755,o),
(150,782,c),
(127,755,o),
(42,680,o),
(15,657,c),
(42,634,o),
(47,629,o),
(70,602,c)
);
},
{
closed = 1;
nodes = (
(253,629,o),
(258,634,o),
(285,657,c),
(258,680,o),
(173,755,o),
(150,782,c),
(127,755,o),
(132,750,o),
(105,727,c),
(132,704,o),
(207,629,o),
(230,602,c)
);
}
);
width = 300;
}
);
unicode = 710;
},
{
glyphname = caron;
lastChange = "2026-01-31 22:33:05 +0000";
layers = (
{
layerId = m01;
shapes = (
{
closed = 1;
nodes = (
(173,629,o),
(258,714,o),
(285,737,c),
(258,760,o),
(253,765,o),
(230,792,c),
(207,765,o),
(122,680,o),
(95,657,c),
(122,634,o),
(127,629,o),
(150,602,c)
);
},
{
closed = 1;
nodes = (
(173,629,o),
(178,634,o),
(205,657,c),
(178,680,o),
(93,765,o),
(70,792,c),
(47,765,o),
(42,760,o),
(15,737,c),
(42,714,o),
(127,629,o),
(150,602,c)
);
}
);
width = 300;
}
);
unicode = 711;
},
{
glyphname = breve;
lastChange = "2026-01-31 22:46:50 +0000";
layers = (
{
background = {
shapes = (
{
closed = 1;
nodes = (
(173,629,o),
(258,714,o),
(285,737,c),
(258,760,o),
(253,765,o),
(230,792,c),
(207,765,o),
(122,680,o),
(95,657,c),
(122,634,o),
(127,629,o),
(150,602,c)
);
},
{
closed = 1;
nodes = (
(173,629,o),
(178,634,o),
(205,657,c),
(178,680,o),
(93,765,o),
(70,792,c),
(47,765,o),
(42,760,o),
(15,737,c),
(42,714,o),
(127,629,o),
(150,602,c)
);
}
);
};
layerId = m01;
shapes = (
{
closed = 1;
nodes = (
(229,642,o),
(285,698,o),
(285,777,c),
(230,782,l),
(230,733,o),
(197,699,o),
(150,699,cs),
(103,699,o),
(70,733,o),
(70,782,c),
(15,777,l),
(15,698,o),
(71,642,o),
(150,642,cs)
);
}
);
width = 300;
}
);
unicode = 728;
},
{
glyphname = ring;
lastChange = "2026-01-31 22:46:32 +0000";
layers = (
{
layerId = m01;
shapes = (
{
closed = 1;
nodes = (
(201,596,o),
(243,638,o),
(243,690,cs),
(243,742,o),
(201,784,o),
(149,784,cs),
(97,784,o),
(55,742,o),
(55,690,cs),
(55,638,o),
(97,596,o),
(149,596,cs)
);
},
{
closed = 1;
nodes = (
(118,641,o),
(100,659,o),
(100,690,cs),
(100,721,o),
(118,739,o),
(149,739,cs),
(180,739,o),
(198,721,o),
(198,690,cs),
(198,659,o),
(180,641,o),
(149,641,cs)
);
}
);
width = 300;
}
);
unicode = 730;
},
{
glyphname = tilde;
lastChange = "2026-01-31 22:51:17 +0000";
layers = (
{
layerId = m01;
shapes = (
{
closed = 1;
nodes = (
(26,624,l),
(32,650,o),
(52,668,o),
(73,668,cs),
(120,668,o),
(155,583,o),
(225,583,cs),
(272,583,o),
(314,619,o),
(327,671,c),
(277,699,l),
(270,669,o),
(249,649,o),
(227,649,cs),
(192,649,o),
(156,735,o),
(74,735,cs),
(21,735,o),
(-21,692,o),
(-27,631,c)
);
}
);
width = 300;
}
);
unicode = 732;
},
{
glyphname = macron;
lastChange = "2026-01-31 22:43:32 +0000";
layers = (
{
layerId = m01;
shapes = (
{
closed = 1;
nodes = (
(15,662,l),
(285,662,l),
(285,717,l),
(15,717,l)
);
}
);
width = 300;
}
);
unicode = 175;
},
{
glyphname = cedilla;
lastChange = "2026-01-31 22:45:30 +0000";
layers = (
{
layerId = m01;
shapes = (
{
closed = 1;
nodes = (
(198,-227,o),
(245,-191,o),
(245,-141,cs),
(245,-91,o),
(194,-59,o),
(121,-64,c),
(134,-80,l),
(169,4,l),
(107,4,l),
(64,-112,l),
(75,-110,o),
(99,-109,o),
(123,-109,cs),
(157,-109,o),
(181,-122,o),
(181,-141,cs),
(181,-162,o),
(161,-177,o),
(132,-177,cs),
(113,-177,o),
(87,-174,o),
(70,-169,c),
(55,-209,l),
(73,-220,o),
(105,-227,o),
(132,-227,cs)
);
}
);
width = 300;
}
);
unicode = 184;
},
{
glyphname = ogonek;
lastChange = "2026-01-31 22:45:49 +0000";
layers = (
{
layerId = m01;
shapes = (
{
closed = 1;
nodes = (
(212,-226,o),
(235,-213,o),
(235,-189,cs),
(235,-172,o),
(217,-162,o),
(186,-162,cs),
(155,-162,o),
(137,-144,o),
(137,-112,cs),
(137,-72,o),
(161,-32,o),
(204,1,c),
(150,1,l),
(96,-37,o),
(65,-85,o),
(65,-134,cs),
(65,-193,o),
(104,-226,o),
(171,-226,cs)
);
}
);
width = 300;
}
);
unicode = 731;
},
